<svg t="1746968304528" class="icon" viewBox="0 0 1024 1024" version="1.1" xmlns="http://www.w3.org/2000/svg" p-id="4131" width="200" height="200"><path d="M768 802.133333c-8.533333 0-17.066667-4.266667-21.333333-8.533333L597.333333 640c-12.8-12.8-12.8-34.133333 0-46.933333s34.133333-12.8 46.933334 0l149.333333 149.333333c12.8 12.8 12.8 34.133333 0 46.933333-8.533333 8.533333-17.066667 12.8-25.6 12.8z m-362.666667-366.933333c-8.533333 0-17.066667-4.266667-21.333333-8.533333L234.666667 277.333333c-12.8-12.8-12.8-34.133333 0-46.933333s34.133333-12.8 46.933333 0L426.666667 384c12.8 12.8 12.8 34.133333 0 46.933333-4.266667 4.266667-12.8 4.266667-21.333334 4.266667zM256 802.133333c-8.533333 0-17.066667-4.266667-21.333333-8.533333-12.8-12.8-12.8-34.133333 0-46.933333L384 597.333333c12.8-12.8 34.133333-12.8 46.933333 0s12.8 34.133333 0 46.933334l-149.333333 149.333333c-8.533333 4.266667-17.066667 8.533333-25.6 8.533333z m362.666667-366.933333c-8.533333 0-17.066667-4.266667-21.333334-8.533333-12.8-12.8-12.8-34.133333 0-46.933334l149.333334-149.333333c12.8-12.8 34.133333-12.8 46.933333 0s12.8 34.133333 0 46.933333L640 426.666667c-4.266667 8.533333-12.8 8.533333-21.333333 8.533333z" fill="#333333" p-id="4132"></path><path d="M618.666667 648.533333h-213.333334c-17.066667 0-34.133333-12.8-34.133333-34.133333v-213.333333c0-17.066667 12.8-34.133333 34.133333-34.133334h213.333334c17.066667 0 34.133333 12.8 34.133333 34.133334v213.333333c-4.266667 21.333333-17.066667 34.133333-34.133333 34.133333z m-183.466667-59.733333h149.333333v-149.333333h-149.333333v149.333333zM768 435.2c-17.066667 0-34.133333-12.8-34.133333-34.133333s12.8-34.133333 34.133333-34.133334 46.933333-8.533333 64-21.333333c21.333333-12.8 34.133333-29.866667 42.666667-51.2 8.533333-21.333333 12.8-46.933333 8.533333-68.266667-4.266667-21.333333-17.066667-42.666667-34.133333-59.733333-17.066667-17.066667-38.4-25.6-59.733334-34.133333-21.333333-4.266667-46.933333-4.266667-68.266666 8.533333-21.333333 8.533333-38.4 25.6-51.2 42.666667-12.8 21.333333-21.333333 42.666667-21.333334 64 0 17.066667-12.8 34.133333-34.133333 34.133333s-25.6-8.533333-25.6-25.6c0-34.133333 8.533333-72.533333 29.866667-102.4 21.333333-29.866667 46.933333-51.2 81.066666-68.266667 34.133333-12.8 68.266667-17.066667 106.666667-8.533333 34.133333 8.533333 64 25.6 89.6 51.2 25.6 25.6 42.666667 59.733333 51.2 93.866667 8.533333 34.133333 4.266667 72.533333-8.533333 106.666666-12.8 34.133333-38.4 59.733333-68.266667 81.066667-29.866667 17.066667-68.266667 25.6-102.4 25.6zM768 947.2c-25.6 0-46.933333-4.266667-68.266667-12.8-34.133333-12.8-59.733333-38.4-81.066666-68.266667-21.333333-29.866667-29.866667-64-29.866667-102.4 0-17.066667 12.8-34.133333 34.133333-34.133333s34.133333 12.8 34.133334 34.133333 8.533333 46.933333 21.333333 64c12.8 21.333333 29.866667 34.133333 51.2 42.666667 21.333333 8.533333 46.933333 12.8 68.266667 8.533333 21.333333-4.266667 42.666667-17.066667 59.733333-34.133333 17.066667-17.066667 25.6-38.4 34.133333-59.733333s4.266667-46.933333-8.533333-68.266667c-8.533333-21.333333-25.6-38.4-42.666667-51.2-21.333333-12.8-42.666667-21.333333-64-21.333333-17.066667 0-34.133333-12.8-34.133333-34.133334s12.8-34.133333 34.133333-34.133333c34.133333 0 72.533333 8.533333 102.4 29.866667 29.866667 21.333333 51.2 46.933333 68.266667 81.066666 12.8 34.133333 17.066667 68.266667 8.533333 106.666667-17.066667 46.933333-34.133333 76.8-59.733333 102.4s-55.466667 42.666667-93.866667 51.2H768zM256 947.2c-12.8 0-25.6 0-34.133333-4.266667-38.4-4.266667-68.266667-21.333333-93.866667-46.933333-25.6-25.6-42.666667-55.466667-51.2-93.866667s-4.266667-72.533333 8.533333-106.666666c12.8-34.133333 38.4-59.733333 68.266667-81.066667 29.866667-17.066667 68.266667-25.6 102.4-25.6 17.066667 0 34.133333 12.8 34.133333 34.133333s-17.066667 25.6-34.133333 25.6c-21.333333 0-46.933333 8.533333-64 21.333334-21.333333 12.8-34.133333 29.866667-42.666667 51.2s-12.8 46.933333-8.533333 68.266666 17.066667 42.666667 34.133333 59.733334c17.066667 17.066667 38.4 25.6 59.733334 34.133333 21.333333 4.266667 46.933333 4.266667 68.266666-8.533333 21.333333-8.533333 38.4-25.6 51.2-42.666667 12.8-21.333333 21.333333-42.666667 21.333334-64 0-17.066667 12.8-34.133333 34.133333-34.133333s34.133333 12.8 34.133333 34.133333c0 34.133333-8.533333 72.533333-29.866666 102.4-21.333333 29.866667-46.933333 51.2-81.066667 68.266667-29.866667 4.266667-51.2 8.533333-76.8 8.533333zM256 435.2c-34.133333 0-72.533333-8.533333-102.4-29.866667-29.866667-17.066667-51.2-46.933333-64-81.066666-12.8-34.133333-17.066667-68.266667-12.8-102.4C85.333333 183.466667 102.4 153.6 128 128c25.6-25.6 59.733333-42.666667 93.866667-51.2 34.133333-4.266667 68.266667 0 102.4 12.8 34.133333 12.8 59.733333 38.4 81.066666 68.266667 21.333333 25.6 29.866667 64 29.866667 98.133333 0 17.066667-12.8 34.133333-34.133333 34.133333s-25.6-17.066667-25.6-34.133333c0-21.333333-8.533333-46.933333-21.333334-64-12.8-21.333333-29.866667-34.133333-51.2-42.666667-25.6-8.533333-46.933333-12.8-68.266666-8.533333-21.333333 4.266667-42.666667 17.066667-59.733334 34.133333-17.066667 12.8-29.866667 34.133333-34.133333 59.733334-4.266667 21.333333 0 42.666667 8.533333 68.266666 8.533333 21.333333 21.333333 38.4 42.666667 51.2 21.333333 12.8 42.666667 21.333333 64 21.333334 17.066667 0 34.133333 12.8 34.133333 34.133333s-17.066667 25.6-34.133333 25.6z" fill="#333333" p-id="4133"></path></svg>