<svg width="65" height="65" viewBox="0 0 65 65" fill="none" xmlns="http://www.w3.org/2000/svg">
<path d="M43.8333 3H20.5C10.835 3 3 10.835 3 20.5V43.8333C3 53.4983 10.835 61.3333 20.5 61.3333H43.8333C53.4983 61.3333 61.3333 53.4983 61.3333 43.8333V20.5C61.3333 10.835 53.4983 3 43.8333 3Z" stroke="#76C850" stroke-width="5.83333" stroke-linecap="round" stroke-linejoin="round"/>
<path d="M61.3333 32.1667C61.3333 41.7917 53.4583 49.6667 43.8333 49.6667H20.5C10.875 49.6667 3 41.7917 3 32.1667M17.5833 14.6667H46.75" stroke="#76C850" stroke-width="5.83333" stroke-linecap="round" stroke-linejoin="round"/>
<path d="M23.4167 26.3333H17.5833C15.9725 26.3333 14.6667 27.6392 14.6667 29.25V35.0833C14.6667 36.6942 15.9725 38 17.5833 38H23.4167C25.0275 38 26.3333 36.6942 26.3333 35.0833V29.25C26.3333 27.6392 25.0275 26.3333 23.4167 26.3333Z" stroke="#76C850" stroke-width="5.83333" stroke-linecap="round" stroke-linejoin="round"/>
<path d="M46.75 26.3333H40.9167C39.3058 26.3333 38 27.6392 38 29.25V35.0833C38 36.6942 39.3058 38 40.9167 38H46.75C48.3608 38 49.6667 36.6942 49.6667 35.0833V29.25C49.6667 27.6392 48.3608 26.3333 46.75 26.3333Z" stroke="#76C850" stroke-width="5.83333" stroke-linecap="round" stroke-linejoin="round"/>
</svg>
