<svg width="59" height="44" viewBox="0 0 59 44" fill="none" xmlns="http://www.w3.org/2000/svg">
<path d="M8.83334 35.0833C8.83334 36.6304 9.44792 38.1142 10.5419 39.2081C11.6358 40.3021 13.1196 40.9167 14.6667 40.9167C16.2138 40.9167 17.6975 40.3021 18.7915 39.2081C19.8854 38.1142 20.5 36.6304 20.5 35.0833C20.5 33.5362 19.8854 32.0525 18.7915 30.9585C17.6975 29.8646 16.2138 29.25 14.6667 29.25C13.1196 29.25 11.6358 29.8646 10.5419 30.9585C9.44792 32.0525 8.83334 33.5362 8.83334 35.0833ZM38 35.0833C38 36.6304 38.6146 38.1142 39.7085 39.2081C40.8025 40.3021 42.2862 40.9167 43.8333 40.9167C45.3804 40.9167 46.8642 40.3021 47.9581 39.2081C49.0521 38.1142 49.6667 36.6304 49.6667 35.0833C49.6667 33.5362 49.0521 32.0525 47.9581 30.9585C46.8642 29.8646 45.3804 29.25 43.8333 29.25C42.2862 29.25 40.8025 29.8646 39.7085 30.9585C38.6146 32.0525 38 33.5362 38 35.0833Z" stroke="#57B400" stroke-width="5.83333" stroke-linecap="round" stroke-linejoin="round"/>
<path d="M8.83333 35.0833H3V17.5833M3 17.5833L8.83333 3H35.0833L46.75 17.5833M3 17.5833H46.75M46.75 17.5833H49.6667C51.2138 17.5833 52.6975 18.1979 53.7915 19.2919C54.8854 20.3858 55.5 21.8696 55.5 23.4167V35.0833H49.6667M38 35.0833H20.5M29.25 17.5833V3" stroke="#57B400" stroke-width="5.83333" stroke-linecap="round" stroke-linejoin="round"/>
</svg>
