<svg width="1041" height="731" xmlns="http://www.w3.org/2000/svg" xmlns:xlink="http://www.w3.org/1999/xlink" xml:space="preserve" overflow="hidden"><g transform="translate(33 -1508)"><path d="M893.453 2130.46C781.437 2065.63 781.437 2065.63 781.437 2065.63 773.483 2061 763.54 2061 755.587 2065.63 636.942 2133.76 636.942 2133.76 636.942 2133.76 627 2131.78 627 2131.78 627 2131.78 627 2145.01 627 2145.01 627 2145.01 627 2147.65 628.326 2150.3 631.64 2152.28 758.901 2226.37 758.901 2226.37 758.901 2226.37 766.854 2231 776.797 2231 785.413 2226.37 909.36 2154.93 909.36 2154.93 909.36 2154.93 912.012 2152.95 914 2150.3 914 2146.99 914 2134.42 914 2134.42 914 2134.42 893.453 2130.46 893.453 2130.46 893.453 2130.46" fill="#C5ECFF" fill-rule="evenodd"/><path d="M631.952 2139.28C758.927 2213.37 758.927 2213.37 758.927 2213.37 766.863 2218 776.783 2218 785.38 2213.37 909.048 2141.93 909.048 2141.93 909.048 2141.93 915 2138.62 915 2130.02 909.048 2126.72 781.412 2052.63 781.412 2052.63 781.412 2052.63 773.476 2048 763.556 2048 755.62 2052.63 631.952 2124.07 631.952 2124.07 631.952 2124.07 626 2127.38 626 2135.98 631.952 2139.28Z" fill="#DFF5FF" fill-rule="evenodd"/><path d="M332.552 2139.82C163.69 2041.61 163.69 2041.61 163.69 2041.61 155.775 2037 145.881 2037 137.965 2041.61 19.8942 2110.16 19.8942 2110.16 19.8942 2110.16 9.99997 2108.18 9.99997 2108.18 9.99997 2108.18 9.99997 2120.7 9.99997 2120.7 9.99997 2120.7 9.99997 2123.34 11.3192 2126.64 13.9577 2127.95 199.31 2235.39 199.31 2235.39 199.31 2235.39 207.225 2240 217.119 2240 225.035 2235.39 348.383 2164.2 348.383 2164.2 348.383 2164.2 351.681 2162.23 353 2159.59 353 2156.3 353 2143.77 353 2143.77 353 2143.77 332.552 2139.82 332.552 2139.82 332.552 2139.82" fill="#C5ECFF" fill-rule="evenodd"/><path d="M13.2976 2115.95C199.38 2223.39 199.38 2223.39 199.38 2223.39 207.326 2228 217.26 2228 225.206 2223.39 349.04 2151.55 349.04 2151.55 349.04 2151.55 355 2148.25 355 2140.34 349.04 2137.05 163.62 2029.61 163.62 2029.61 163.62 2029.61 155.674 2025 145.74 2025 137.794 2029.61 13.2976 2100.8 13.2976 2100.8 13.2976 2100.8 7.9999 2104.09 7.9999 2112.66 13.2976 2115.95Z" fill="#DFF5FF" fill-rule="evenodd"/><path d="M984.49 1686.49C795.138 1576.63 795.138 1576.63 795.138 1576.63 786.531 1572 775.276 1572 766.007 1576.63 634.255 1653.4 634.255 1653.4 634.255 1653.4 623 1650.76 623 1650.76 623 1650.76 623 1665.31 623 1665.31 623 1665.31 623 1668.62 624.324 1671.93 627.634 1673.26 834.862 1793.71 834.862 1793.71 834.862 1793.71 844.131 1799 854.724 1799 863.993 1793.71 1002.37 1713.63 1002.37 1713.63 1002.37 1713.63 1005.68 1712.3 1007 1708.99 1007 1705.69 1007 1691.13 1007 1691.13 1007 1691.13 984.49 1686.49 984.49 1686.49 984.49 1686.49" fill="#C5ECFF" fill-rule="evenodd"/><path d="M627.954 1659.47C835.015 1779.39 835.015 1779.39 835.015 1779.39 844.277 1784 854.861 1784 864.123 1779.39 1002.38 1699.66 1002.38 1699.66 1002.38 1699.66 1009 1695.71 1009 1686.48 1002.38 1683.19 795.323 1563.27 795.323 1563.27 795.323 1563.27 786.723 1558 775.477 1558 766.215 1563.27 627.954 1643 627.954 1643 627.954 1643 622 1646.29 622 1655.52 627.954 1659.47Z" fill="#DFF5FF" fill-rule="evenodd"/><path d="M9.52501 1743.32C159.709 1655.97 159.709 1655.97 159.709 1655.97 166.325 1652 175.588 1652 182.204 1655.97 287.399 1716.19 287.399 1716.19 287.399 1716.19 296 1714.87 296 1714.87 296 1714.87 296 1726.12 296 1726.12 296 1726.12 296 1728.76 294.677 1731.41 292.03 1732.74 127.952 1828.03 127.952 1828.03 127.952 1828.03 120.675 1832 112.074 1832 104.796 1828.03-5.0303 1764.5-5.0303 1764.5-5.0303 1764.5-7.67672 1763.18-8.99993 1760.53-8.99993 1757.88-8.99993 1746.63-8.99993 1746.63-8.99993 1746.63 9.52501 1743.32 9.52501 1743.32 9.52501 1743.32" fill="#C5ECFF" fill-rule="evenodd"/><path d="M291.701 1720.74C127.434 1816.03 127.434 1816.03 127.434 1816.03 120.148 1820 111.538 1820 104.252 1816.03-5.70108 1752.5-5.70108 1752.5-5.70108 1752.5-11 1749.85-11 1742.57-5.70108 1739.26 159.228 1643.97 159.228 1643.97 159.228 1643.97 165.852 1640 175.125 1640 181.748 1643.97 291.701 1707.5 291.701 1707.5 291.701 1707.5 297 1710.15 297 1717.43 291.701 1720.74" fill="#DFF5FF" fill-rule="evenodd"/><path d="M224.542 1740.66C224.542 1740.66 203 1727.9 203 1727.9 221.931 1714.48 221.931 1714.48 221.931 1714.48 224.542 1707.1 229.111 1701.05 234.333 1697.7 242.819 1693 250 1698.37 250 1709.78 250 1721.19 242.819 1734.62 234.333 1739.99 231.069 1742 227.806 1742 224.542 1740.66Z" fill="#5F92AA" fill-rule="evenodd"/><path d="M113.319 1600.76C192.31 1555.66 192.31 1555.66 192.31 1555.66 193.638 1555 194.302 1555 195.629 1555.66 195.629 1555.66 195.629 1555.66 195.629 1555.66 262.672 1594.79 262.672 1594.79 262.672 1594.79 262.672 1594.79 262.672 1594.79 262.672 1594.79 263.336 1594.79 264 1596.12 264 1597.44 264 1690.28 264 1690.28 264 1690.28 264 1692.94 262.672 1694.93 260.681 1696.25 177.043 1744 177.043 1744 177.043 1744 110 1706.2 110 1706.2 110 1706.2 110 1705.54 110 1705.54 110 1705.54 110 1606.73 110 1606.73 110 1606.73 110 1604.74 111.328 1602.08 113.319 1600.76" fill="#E84C3D" fill-rule="evenodd"/><path d="M177 1744C177 1645.54 177 1645.54 177 1645.54 177 1643.56 178.328 1640.92 180.321 1640.26 259.351 1595.32 259.351 1595.32 259.351 1595.32 261.344 1594 264 1595.32 264 1597.96 264 1690.48 264 1690.48 264 1690.48 264 1693.12 262.672 1695.1 260.679 1696.42L177 1744Z" fill="#B03A2E" fill-rule="evenodd"/><path d="M263.336 1693.72C264 1693.06 264 1691.74 264 1690.42 264 1658 264 1658 264 1658 177 1708.28 177 1708.28 177 1708.28 177 1744 177 1744 177 1744 260.679 1696.37 260.679 1696.37 260.679 1696.37 262.008 1695.71 262.672 1695.05 263.336 1693.72Z" fill="#9FE0FF" fill-rule="evenodd"/><path d="M177 1645.55 110 1607 110 1706.09 177 1744 177 1645.55Z" fill="#A8372C" fill-rule="evenodd"/><path d="M117.194 1800.68C116.542 1800.68 94.9999 1788.19 94.9999 1788.19 113.93 1775.04 113.93 1775.04 113.93 1775.04 116.542 1767.81 121.111 1761.89 126.333 1758.6 134.819 1754 142 1759.26 142 1770.44 142 1781.62 134.819 1794.77 126.333 1800.03 123.069 1802 119.805 1802 117.194 1800.68Z" fill="#5F92AA" fill-rule="evenodd"/><path d="M28.9999 1724.89C28.9999 1750.67 28.9999 1750.67 28.9999 1750.67 28.9999 1754.64 30.9909 1757.95 32.9819 1760.59 46.2555 1772.49 61.5201 1781.74 78.112 1787.03 84.0851 1789.02 84.0851 1789.02 84.0851 1789.02 89.3946 1791 96.0313 1790.34 100.677 1787.03 177 1743.4 177 1743.4 177 1743.4 177 1673.33 177 1673.33 177 1673.33 176.336 1671.34 175.673 1670.02 174.345 1669.36 111.296 1633.66 111.296 1633.66 111.296 1633.66 109.305 1633 107.314 1633 105.987 1633.66 89.3946 1642.92 89.3946 1642.92 89.3946 1642.92 80.1031 1648.87 72.8026 1657.46 69.4842 1668.04 63.5111 1689.85 63.5111 1689.85 63.5111 1689.85 35.6366 1711.67 35.6366 1711.67 35.6366 1711.67 31.6546 1714.97 28.9999 1719.6 28.9999 1724.89" fill="#C5ECFF" fill-rule="evenodd"/><path d="M30.9909 1736.11C30.9909 1739.42 32.3183 1742.73 34.973 1744.71 36.964 1746.69 36.964 1746.69 36.964 1746.69 38.955 1756.61 38.955 1756.61 38.955 1756.61 47.5828 1763.89 57.538 1769.18 67.4932 1773.81 76.121 1769.18 76.121 1769.18 76.121 1769.18 83.4215 1771.16 83.4215 1771.16 83.4215 1771.16 85.4125 1771.82 87.4035 1771.16 88.0672 1769.18 92.7129 1769.18 92.7129 1769.18 92.7129 1769.18 92.7129 1760.58 92.7129 1760.58 92.7129 1760.58 92.7129 1755.29 95.3677 1750.66 99.3497 1747.35 127.224 1726.19 127.224 1726.19 127.224 1726.19 133.197 1703.71 133.197 1703.71 133.197 1703.71 136.516 1693.13 143.152 1684.53 153.108 1678.58 169.036 1669.32 169.036 1669.32 169.036 1669.32 172.354 1668 176.336 1669.32 177 1673.29 177 1743.39 177 1743.39 177 1743.39 100.677 1787.03 100.677 1787.03 100.677 1787.03 96.0313 1790.34 89.3946 1791 84.0851 1789.02 78.112 1787.03 78.112 1787.03 78.112 1787.03 61.5201 1781.74 46.2555 1772.48 32.9819 1760.58 30.9909 1757.94 28.9999 1754.63 28.9999 1750.66 28.9999 1735.45 28.9999 1735.45 28.9999 1735.45 30.9909 1736.11 30.9909 1736.11 30.9909 1736.11 30.9909 1736.11 30.9909 1736.11 30.9909 1736.11" fill="#9FE0FF" fill-rule="evenodd"/><path d="M111 1788.44C111 1799.7 117.596 1805 126.17 1800.36 134.745 1795.06 142 1781.82 142 1770.56 142 1759.3 134.745 1754 126.17 1758.64 117.596 1763.94 111 1777.18 111 1788.44Z" fill="#7FC3E3" fill-rule="evenodd"/><path d="M119 1783.45C119 1789.37 122.261 1792 126.174 1789.37 130.739 1786.74 134 1780.16 134 1774.89 134 1768.97 130.739 1767 126.174 1768.97 122.261 1771.61 119 1778.18 119 1783.45Z" fill="#D6EEF9" fill-rule="evenodd"/><path d="M123 1782.33C123 1785.67 124.846 1787 126.692 1785.67 129.154 1784.33 131 1781 131 1777.67 131 1774.33 129.154 1773 126.692 1774.33 124.846 1775.67 123 1779.67 123 1782.33Z" fill="#7FC3E3" fill-rule="evenodd"/><path d="M35.7307 1711.83C63.9999 1690 63.9999 1690 63.9999 1690 37.0768 1733 37.0768 1733 37.0768 1733 28.9999 1725.06 28.9999 1725.06 28.9999 1725.06 28.9999 1719.77 31.6922 1715.14 35.7307 1711.83Z" fill="#C5ECFF" fill-rule="evenodd"/><path d="M85.935 1759.65C82.6233 1758.31 79.3116 1756.96 76 1755.62 127 1726 127 1726 127 1726 99.1817 1747.54 99.1817 1747.54 99.1817 1747.54 95.2077 1750.9 92.5584 1755.62 92.5584 1761L85.935 1759.65Z" fill="#C5ECFF" fill-rule="evenodd"/><path d="M37.0001 1746.89C37.0001 1733 37.0001 1733 37.0001 1733 37.0001 1733 37.0001 1733 37.0001 1733 48.8984 1742.92 62.1187 1750.19 76 1756.15 76 1769.37 76 1769.37 76 1769.37 76 1769.37 76 1769.37 76 1769.37 76 1769.37 76 1769.37 76 1769.37 67.4068 1774 67.4068 1774 67.4068 1774 57.4916 1769.37 47.5764 1764.08 38.9832 1756.81L37.0001 1746.89Z" fill="#5F92AA" fill-rule="evenodd"/><path d="M83.4801 1771.32C76 1769.28 76 1769.28 76 1769.28 76 1755 76 1755 76 1755 79.4 1756.36 82.8 1757.72 86.2001 1759.08 93.0002 1760.44 93.0002 1760.44 93.0002 1760.44 93.0002 1769.28 93.0002 1769.28 93.0002 1769.28 88.2401 1769.28 88.2401 1769.28 88.2401 1769.28 87.5601 1771.32 85.5201 1772 83.4801 1771.32Z" fill="#C5ECFF" fill-rule="evenodd"/><path d="M28.9999 1725C37.0001 1733 37.0001 1733 37.0001 1733 37.0001 1747 37.0001 1747 37.0001 1747 35.0001 1745 35.0001 1745 35.0001 1745 32.3333 1743 30.9999 1739.67 30.9999 1736.33 30.9999 1736.33 30.9999 1736.33 30.9999 1736.33 28.9999 1735.67 28.9999 1735.67 28.9999 1735.67L28.9999 1725Z" fill="#C5ECFF" fill-rule="evenodd"/><path d="M37.0001 1746.5C37.0001 1742 37.0001 1742 37.0001 1742 45.5933 1749.71 56.1695 1756.14 66.7458 1760.64 76 1764.5 76 1764.5 76 1764.5 76 1769 76 1769 76 1769 76 1769 76 1769 76 1769 64.7627 1763.86 64.7627 1763.86 64.7627 1763.86 54.8475 1760 45.5933 1754.21 37.0001 1746.5Z" fill="#7FC3E3" fill-rule="evenodd"/><path d="M81.3963 1654C139 1687.17 139 1687.17 139 1687.17 135.651 1691.15 132.302 1696.46 130.962 1702.43 125.604 1721 125.604 1721 125.604 1721 68.0001 1688.5 68.0001 1688.5 68.0001 1688.5 73.3585 1669.26 73.3585 1669.26 73.3585 1669.26 74.6982 1663.95 77.3774 1658.64 81.3963 1654" fill="#5F92AA" fill-rule="evenodd"/><path d="M172 1700.64C134 1723 134 1723 134 1723 137.276 1707.22 137.276 1707.22 137.276 1707.22 139.897 1698.01 145.793 1690.12 153.655 1685.52 172 1675 172 1675 172 1675 172 1700.64 172 1700.64 172 1700.64" fill="#5F92AA" fill-rule="evenodd"/><path d="M83.8798 1656C105 1667.87 105 1667.87 105 1667.87 71.9998 1687 71.9998 1687 71.9998 1687 75.9598 1671.83 75.9598 1671.83 75.9598 1671.83 77.2798 1665.89 79.9198 1660.62 83.8798 1656" fill="#7FC3E3" fill-rule="evenodd"/><path d="M81.1429 1654C77.2001 1658.71 74.5715 1664.1 73.2572 1669.48 68.0001 1689 68.0001 1689 68.0001 1689 73.2572 1669.48 73.2572 1669.48 73.2572 1669.48 74.5715 1664.1 77.2001 1658.71 81.1429 1654 83.1144 1655.35 83.1144 1655.35 83.1144 1655.35 83.1144 1655.35 83.1144 1655.35 83.1144 1655.35 91.0001 1660.06 91.0001 1660.06 91.0001 1660.06 91.0001 1660.06 91.0001 1660.06 91.0001 1660.06 81.1429 1654 81.1429 1654 81.1429 1654" fill="#CBEEFF" fill-rule="evenodd"/><path d="M81.6585 1654C77.561 1658.61 74.8293 1663.87 73.4634 1669.13 68.0001 1688.21 68.0001 1688.21 68.0001 1688.21 95.9999 1704 95.9999 1704 95.9999 1704 93.2682 1674.39 93.2682 1674.39 93.2682 1674.39 71.4147 1686.24 71.4147 1686.24 71.4147 1686.24 75.5122 1671.11 75.5122 1671.11 75.5122 1671.11 76.8781 1665.18 79.6098 1659.92 83.7073 1655.32 81.6585 1654 81.6585 1654 81.6585 1654" fill="#6F9DB3" fill-rule="evenodd"/><path d="M83.8125 1656C83.8125 1656 83.8125 1656 83.8125 1656 79.875 1660.62 77.2499 1665.89 75.9374 1671.83 71.9998 1687 71.9998 1687 71.9998 1687 93.0002 1675.13 93.0002 1675.13 93.0002 1675.13 91.6876 1660.62 91.6876 1660.62 91.6876 1660.62 83.8125 1656 83.8125 1656 83.8125 1656" fill="#8CC9E6" fill-rule="evenodd"/><path d="M219 1727.44C219 1738.7 225.596 1744 234.17 1739.36 242.745 1734.06 250 1720.82 250 1709.56 250 1698.3 242.745 1693 234.17 1697.64 225.596 1702.94 219 1716.18 219 1727.44Z" fill="#7FC3E3" fill-rule="evenodd"/><path d="M227 1723.33C227 1729.33 230.261 1732 234.174 1729.33 238.739 1726.67 242 1720 242 1714.67 242 1708.67 238.739 1706 234.174 1708.67 230.261 1711.33 227 1718 227 1723.33Z" fill="#D6EEF9" fill-rule="evenodd"/><path d="M231 1721.33C231 1724.67 232.846 1726 234.692 1724.67 237.154 1723.33 239 1720 239 1716.67 239 1713.33 237.154 1712 234.692 1713.33 232.846 1714.67 231 1718.67 231 1721.33Z" fill="#7FC3E3" fill-rule="evenodd"/><path d="M172 1675 172 1675 152 1712 172 1700.4 172 1675Z" fill="#6798AE" fill-rule="evenodd"/><path d="M37.0001 1738C37.0001 1740.67 35.091 1742 33.1818 1740.67 31.9091 1740 29.9999 1736.67 29.9999 1734 29.9999 1731.33 31.9091 1730 33.1818 1731.33 35.091 1732.67 37.0001 1735.33 37.0001 1738Z" fill="#DFF2FA" fill-rule="evenodd"/><path d="M88 1768.67C88 1771.14 86.6667 1773 84.0001 1771.14 82.0001 1769.9 80.0001 1766.81 80.0001 1763.71 80.0001 1761.24 82.0001 1760 84.0001 1761.24 86.6667 1762.48 88 1765.57 88 1768.67Z" fill="#DFF2FA" fill-rule="evenodd"/><path d="M223.5 1665.06C216.263 1669 211 1665.06 211 1655.22 211 1646.03 216.263 1635.53 223.5 1630.94 230.737 1627 236 1631.59 236 1640.78 236 1649.97 230.737 1661.12 223.5 1665.06ZM223.5 1634.22C217.579 1637.5 212.974 1646.69 212.974 1653.91 212.974 1661.78 217.579 1665.06 223.5 1661.78 229.421 1658.5 234.026 1649.97 234.026 1642.09 234.026 1634.22 229.421 1630.94 223.5 1634.22Z" fill="#D6EEF9" fill-rule="evenodd"/><path d="M211 1667.02C210.333 1667.68 210.333 1667.68 209.667 1668.34 207.667 1669 207 1669 206.333 1667.68 205.667 1667.02 205 1665.69 205.667 1664.37 206.333 1659.75 211 1655.12 211.667 1654.46 212.333 1656.44 212.333 1656.44 212.333 1656.44 211 1658.42 208.333 1661.73 207.667 1663.71 207.667 1664.37 207.667 1665.03 207.667 1665.03 208.333 1665.03 208.333 1665.69 209.667 1665.03 217 1661.73 236.333 1643.22 239.667 1637.27 240.333 1635.29 240.333 1635.29 240.333 1635.29 240.333 1634.63 237 1635.95 234.333 1637.93 234.333 1634.63 234.333 1634.63 234.333 1634.63 236.333 1633.31 241.667 1630 243 1632.64 243 1633.97 243 1635.95 241 1638.59 237 1645.2 219.667 1662.39 211 1667.02Z" fill="#D6EEF9" fill-rule="evenodd"/><path d="M190.972 1966C190.972 1966 195.617 1984.12 212.206 1994.18 229.458 2003.58 256 1993.51 256 1993.51 243.393 2012.97 243.393 2012.97 243.393 2012.97 243.393 2012.97 224.15 2017 208.224 2011.63 191.635 2005.59 185 1988.14 185 1988.14L190.972 1966Z" fill="#2781A8" fill-rule="evenodd"/><path d="M139 2097.83C139 2084.78 131.114 2068.48 120.6 2062.61 116 2060.65 112.057 2060 108.771 2061.96 108.771 2061.96 108.771 2061.96 108.771 2061.96 108.771 2061.96 98.9144 2067.17 98.9144 2067.83 98.2573 2067.83 98.2573 2067.83 98.2573 2067.83 98.2573 2067.83 98.2573 2067.83 98.2573 2067.83 94.9716 2070.43 93.0002 2075 93.0002 2082.17 93.0002 2095.87 100.886 2111.52 111.4 2117.39 116 2120 119.943 2120 123.229 2118.7 123.229 2118.7 123.229 2118.7 123.229 2118.7 123.229 2118.7 123.229 2118.7 123.229 2118.7 132.428 2113.48 132.428 2113.48 132.428 2113.48 132.428 2113.48 132.428 2113.48 132.428 2113.48 136.371 2110.87 139 2105.65 139 2097.83Z" fill="#5F92AA" fill-rule="evenodd"/><path d="M244.076 2031.54C215.565 2048.03 215.565 2048.03 215.565 2048.03 204.294 2053.97 198.326 2065.19 198.326 2077.06 198.326 2091.58 198.326 2091.58 198.326 2091.58 183.076 2083 183.076 2083 183.076 2083 190.37 2079.04 190.37 2079.04 190.37 2079.04 190.37 2068.48 190.37 2068.48 190.37 2068.48 192.359 2067.82 192.359 2067.82 192.359 2067.82 196.337 2065.85 198.326 2061.89 198.326 2057.27 198.326 2053.31 196.337 2049.35 192.359 2046.71 150.587 2022.96 150.587 2022.96 150.587 2022.96 146.609 2020.32 141.967 2019 136.663 2019 131.359 2019 126.054 2020.98 121.413 2024.28 102.848 2034.83 102.848 2034.83 102.848 2034.83 97.5434 2037.47 92.9021 2042.09 90.25 2047.37 81.6304 2051.99 81.6304 2051.99 81.6304 2051.99 77.6521 2054.63 74.9999 2058.59 74.9999 2063.21 74.9999 2079.7 74.9999 2079.7 74.9999 2079.7 74.9999 2084.98 77.6521 2089.6 82.2934 2092.24 124.728 2116.65 124.728 2116.65 124.728 2116.65 129.37 2113.35 129.37 2113.35 129.37 2113.35 165.837 2137.76 165.837 2137.76 165.837 2137.76 176.446 2146.34 191.033 2147 202.304 2140.4 242.75 2117.31 242.75 2117.31 242.75 2117.31 242.75 2117.31 242.75 2117.31 242.75 2117.31 251.37 2112.69 258 2103.45 258 2092.24 258 2038.79 258 2038.79 258 2038.79 258 2032.2 250.044 2027.58 244.076 2031.54Z" fill="#9FE0FF" fill-rule="evenodd"/><path d="M198 2041.33C198 2042 198 2042 198 2042 198 2040.67 197.338 2039.33 196.676 2038 182.77 2017.33 182.77 2017.33 182.77 2017.33 180.784 2014.67 176.811 2014 174.162 2016 150.986 2029.33 150.986 2029.33 150.986 2029.33 149.662 2030 149 2031.33 149 2032.67 149 2032.67 149 2032.67 149 2032.67 149 2044.67 149 2044.67 149 2044.67 149 2044.67 149 2044.67 149 2044.67 149 2046 149.662 2047.33 151.648 2048 178.797 2060.67 178.797 2060.67 178.797 2060.67 182.77 2062 187.405 2062 191.378 2060 194.689 2058 194.689 2058 194.689 2058 196.676 2056.67 198 2054.67 198 2052.67 198 2052.67 198 2052.67 198 2052.67 198 2041.33 198 2041.33 198 2041.33Z" fill="#0D2B38" fill-rule="evenodd"/><path d="M150.684 2029.47C174.171 2016.02 174.171 2016.02 174.171 2016.02 176.855 2014 180.882 2014.67 182.895 2017.36 196.987 2038.22 196.987 2038.22 196.987 2038.22 199 2040.91 198.329 2044.95 194.974 2046.29 191.618 2048.31 191.618 2048.31 191.618 2048.31 187.592 2050.33 182.895 2051 178.869 2048.98 151.355 2036.2 151.355 2036.2 151.355 2036.2 148 2034.85 148 2030.82 150.684 2029.47Z" fill="#1A5670" fill-rule="evenodd"/><path d="M190 2069C183.125 2073.45 183.125 2073.45 183.125 2073.45 181.25 2075.36 180 2078.55 180 2081.73 183.125 2083 183.125 2083 183.125 2083 190 2079.18 190 2079.18 190 2079.18L190 2069Z" fill="#5DBDE6" fill-rule="evenodd"/><path d="M266 2167.83C266 2154.13 257.394 2138.48 246.803 2132.61 242.169 2130 238.197 2130 234.887 2131.96 226.282 2136.52 226.282 2136.52 226.282 2136.52 225.62 2137.17 224.958 2137.17 224.958 2137.17 224.296 2137.17 224.296 2137.17 224.296 2137.17 224.296 2137.17 224.296 2137.17 224.296 2137.17 220.986 2139.78 219 2145 219 2152.17 219 2165.22 226.944 2181.52 237.535 2187.39 242.169 2189.35 246.141 2190 249.451 2188.04 249.451 2188.04 250.113 2188.04 250.113 2188.04 258.718 2182.83 258.718 2182.83 258.718 2182.83 258.718 2182.83 258.718 2182.83 258.718 2182.83 262.69 2180.87 266 2175.65 266 2167.83Z" fill="#7FC3E3" fill-rule="evenodd"/><path d="M256 2173.55C256 2187.4 248.072 2194 237.5 2188.06 226.929 2182.13 219 2165.64 219 2152.45 219 2138.6 226.929 2132 237.5 2137.94 248.072 2143.87 256 2159.7 256 2173.55Z" fill="#2E373D" fill-rule="evenodd"/><path d="M247 2167.89C247 2174.63 242.929 2178 237.5 2174.63 232.071 2171.93 228 2163.85 228 2157.11 228 2150.37 232.071 2147 237.5 2149.7 242.929 2153.07 247 2161.15 247 2167.89Z" fill="#CECECE" fill-rule="evenodd"/><path d="M242 2164.88C242 2168.72 240 2170 237.333 2168.72 234.667 2167.44 232 2162.96 232 2159.76 232 2155.92 234.667 2154 237.333 2155.92 240 2157.2 242 2161.68 242 2164.88Z" fill="#2E373D" fill-rule="evenodd"/><path d="M256 2173.55C256 2187.4 248.072 2194 237.5 2188.06 226.929 2182.13 219 2165.64 219 2152.45 219 2138.6 226.929 2132 237.5 2137.94 248.072 2143.87 256 2159.7 256 2173.55Z" fill="#5F92AA" fill-rule="evenodd"/><path d="M247 2167.89C247 2174.63 242.929 2178 237.5 2174.63 232.071 2171.93 228 2163.85 228 2157.11 228 2150.37 232.071 2147 237.5 2149.7 242.929 2153.07 247 2161.15 247 2167.89Z" fill="#D6EEF9" fill-rule="evenodd"/><path d="M242 2164.88C242 2168.72 240 2170 237.333 2168.72 234.667 2167.44 232 2162.96 232 2159.76 232 2155.92 234.667 2154 237.333 2155.92 240 2157.2 242 2161.68 242 2164.88Z" fill="#5F92AA" fill-rule="evenodd"/><path d="M183.574 2095.67C181.607 2093.67 179.639 2090.33 179.639 2087.67 179.639 2081.67 179.639 2081.67 179.639 2081.67 179.639 2078.33 180.951 2075 182.918 2073 182.918 2073 182.918 2073 182.918 2073 171.771 2079 171.771 2079 171.771 2079 171.115 2079.67 169.803 2080.33 168.492 2081 162.59 2082.33 158 2087.67 158 2093.67 158 2100.33 158 2100.33 158 2100.33 158 2103.67 159.967 2105.67 162.59 2107 198 2117 198 2117 198 2117 198 2107 198 2107 198 2107L183.574 2095.67Z" fill="#5F92AA" fill-rule="evenodd"/><path d="M162.221 2107.21C159.571 2105.89 157.583 2103.91 157.583 2100.61 157.583 2094.01 157.583 2094.01 157.583 2094.01 157.583 2088.08 162.221 2082.8 168.184 2081.48 172.822 2080.16 176.798 2075.54 176.798 2070.26 176.798 2066.31 174.147 2062.35 170.834 2059.71 128.429 2035.96 128.429 2035.96 128.429 2035.96 124.454 2033.32 119.816 2032 115.178 2032 103.914 2032 94.6381 2038.6 90.0001 2047.83 96.6258 2043.87 96.6258 2043.87 96.6258 2043.87 100.601 2041.9 105.239 2041.9 109.215 2043.87 117.166 2048.49 117.166 2048.49 117.166 2048.49 124.454 2053.11 130.417 2059.05 134.393 2066.97 137.706 2072.9 139.031 2080.16 139.031 2086.76 139.031 2104.57 139.031 2104.57 139.031 2104.57 157.583 2115.12 157.583 2115.12 157.583 2115.12 198 2127 198 2127 198 2127 198 2117.1 198 2117.1 198 2117.1L162.221 2107.21Z" fill="#7FC3E3" fill-rule="evenodd"/><path d="M181.022 1963.01C134.203 1936 134.203 1936 134.203 1936 133.543 1936 132.884 1936 132.225 1936 132.225 1936 132.225 1936 132.225 1936 92.6595 1959.06 92.6595 1959.06 92.6595 1959.06 92.6595 1959.06 92.6595 1959.06 92.6595 1959.06 92.0001 1959.06 92.0001 1959.72 92.0001 1960.38 92.0001 2015.72 92.0001 2015.72 92.0001 2015.72 92.0001 2017.04 92.6595 2018.35 93.9784 2019.01 143.435 2048 143.435 2048 143.435 2048 183 2024.94 183 2024.94 183 2024.94 183 2024.94 183 2024.94 183 2024.94 183 1966.31 183 1966.31 183 1966.31 183 1964.99 182.34 1963.67 181.022 1963.01Z" fill="#E84C3D" fill-rule="evenodd"/><path d="M144 2048C144 1989.1 144 1989.1 144 1989.1 144 1987.78 143.333 1986.46 142 1985.13 94.6668 1958.66 94.6668 1958.66 94.6668 1958.66 93.3335 1958 92.0001 1958.66 92.0001 1959.99 92.0001 2015.57 92.0001 2015.57 92.0001 2015.57 92.0001 2016.9 92.6668 2018.22 94.0001 2018.88L144 2048Z" fill="#B03A2E" fill-rule="evenodd"/><path d="M144 1989.29 183 1966 183 2025.03 144 2048 144 1989.29Z" fill="#A8372C" fill-rule="evenodd"/><path d="M108 1986.67C108 1980.67 111.261 1978 115.826 1980.67 119.739 1983.33 123 1990 123 1995.33 123 2001.33 119.739 2004 115.826 2001.33 111.261 1998.67 108 1992 108 1986.67ZM109.304 1987.33C109.304 1992 111.913 1997.33 115.826 1999.33 119.087 2001.33 121.696 1999.33 121.696 1994.67 121.696 1990 119.087 1984.67 115.826 1982.67 111.913 1980.67 109.304 1982.67 109.304 1987.33Z" fill="#D6EEF9" fill-rule="evenodd"/><path d="M122.765 2001.69C122.765 2002.34 123.412 2002.34 123.412 2002.34 124.706 2003 125.353 2003 125.353 2002.34 126 2001.69 126 2001.03 126 2000.37 125.353 1997.74 122.765 1994.46 122.765 1994.46 122.118 1995.77 122.118 1995.77 122.118 1995.77 122.765 1996.43 124.059 1998.4 124.706 1999.71 124.706 2000.37 124.706 2000.37 124.706 2000.37 124.706 2000.37 124.059 2001.03 123.412 2000.37 119.53 1999.06 107.883 1987.89 105.941 1983.94 105.294 1983.29 105.294 1982.63 105.294 1982.63 105.941 1982.63 107.235 1983.29 109.177 1984.6 109.177 1982.63 109.177 1982.63 109.177 1982.63 107.883 1981.97 104.647 1980 104.647 1981.31 104 1981.97 104.647 1983.29 105.294 1985.26 107.235 1989.2 117.588 1999.06 122.765 2001.69Z" fill="#D6EEF9" fill-rule="evenodd"/><path d="M125 2117C125 2095.11 125 2095.11 125 2095.11 125 2087.81 123 2081.18 119.667 2075.21 116.333 2067.25 110.333 2061.28 102.333 2056.63 94.3333 2051.99 94.3333 2051.99 94.3333 2051.99 90.3333 2050 85.6666 2050 81.6666 2051.99 77.6666 2054.64 74.9999 2058.62 74.9999 2063.27 74.9999 2079.85 74.9999 2079.85 74.9999 2079.85 74.9999 2085.16 77.6666 2089.8 82.3333 2092.46L125 2117Z" fill="#7FC3E3" fill-rule="evenodd"/><path d="M246 2162C246 2156.88 244.667 2152.4 242.667 2147.92 239.333 2142.8 235.333 2138.32 230 2135.12 224 2131.92 224 2131.92 224 2131.92 220.667 2130 217.333 2130 214.667 2131.92 211.333 2133.84 210 2136.4 210 2139.6 210 2151.76 210 2151.76 210 2151.76 210 2154.96 212 2157.52 215.333 2158.16L246 2162Z" fill="#7FC3E3" fill-rule="evenodd"/><path d="M265 2135.26C265 2135.26 265 2135.26 265 2135.26 262.333 2129.39 257.667 2124.83 252.333 2122.22 247 2118.96 247 2118.96 247 2118.96 243.667 2117 240.333 2117 237 2118.96 215 2131.35 215 2131.35 215 2131.35 217.667 2129.39 221 2129.39 224.333 2131.35 230.333 2134.61 230.333 2134.61 230.333 2134.61 235.667 2137.87 239.667 2142.43 243 2147.65 245 2152.22 246.333 2156.78 246.333 2162 269 2149.61 269 2149.61 269 2149.61 269 2144.39 267.667 2139.83 265 2135.26Z" fill="#9FE0FF" fill-rule="evenodd"/><path d="M189.268 2012C189.268 2012 226.338 2031.33 226.338 2040.67 227 2050 207.803 2092.67 207.803 2092.67 207.803 2092.67 198.535 2094 196.549 2083.33 193.901 2072.67 205.155 2048.67 205.155 2048.67 183.972 2036 183.972 2036 183.972 2036 180 2026 180 2026 180 2026L189.268 2012Z" fill="#1A5670" fill-rule="evenodd"/><path d="M168 2116C168 2116 164 2121.11 166.667 2126.86 170 2132.61 178.667 2137.72 184 2138.36 188.667 2139 196 2137.72 196 2132.61 195.333 2128.14 184.667 2124.31 184.667 2124.31L168 2116Z" fill="#0D2B38" fill-rule="evenodd"/><path d="M152 2038.91C152 2038.91 153.964 2046.2 159.857 2050.17 186.048 2071.37 186.048 2071.37 186.048 2071.37 186.048 2071.37 167.714 2111.78 168.369 2115.75 168.369 2120.39 176.226 2128.34 181.464 2128.34 186.702 2129 189.976 2116.41 193.905 2108.46 198.488 2100.52 205.036 2074.68 205.69 2068.06 207 2060.77 182.119 2025 182.119 2025L152 2038.91Z" fill="#1A5670" fill-rule="evenodd"/><path d="M147.667 2037.48C147.667 2037.48 143 2017.75 143.667 1995.4 144.333 1973.7 150.333 1964.49 156.333 1959.89 162.333 1955.29 190.333 1952 192.333 1972.38 193.667 1982.9 186.333 1989.48 191.667 2001.97 197 2015.12 192.333 2019.73 185.667 2026.3 177.667 2033.53 167 2048 147.667 2037.48Z" fill="#E84C3D" fill-rule="evenodd"/><path d="M159 1960C159 1960 162.243 1965.68 169.378 1968.84 176.513 1972 183 1964.42 183 1964.42L159 1960Z" fill="#CC8E35" fill-rule="evenodd"/><path d="M161.667 1961.67C161.667 1961.67 181.667 1969 187 1965.67 192.333 1962.33 193 1951 192.333 1942.33 191.667 1934.33 189.667 1925.67 189.667 1925.67 189.667 1925.67 164.333 1923 161.667 1933.67 159 1943.67 161.667 1961.67 161.667 1961.67Z" fill="#FFAD91" fill-rule="evenodd"/><path d="M165 1957.38C165 1957.38 177.667 1960 186.333 1956.72 195 1954.1 197 1952.13 197 1952.13 197 1952.13 195.667 1934.43 192.333 1927.21 189 1920 159 1929.18 161 1938.36 162.333 1948.2 165 1957.38 165 1957.38Z" fill="#0D2B38" fill-rule="evenodd"/><path d="M156.209 1959.42C156.209 1959.42 161.512 1964 164.163 1959.42 166.151 1954.83 162.175 1939.77 166.151 1935.85 169.465 1932.57 175.43 1933.88 182.058 1931.92 188.686 1930.61 192 1927.33 192 1927.33 192 1927.33 188.023 1909 166.151 1910.96 144.279 1912.27 135 1945.01 156.209 1959.42Z" fill="#E84C3D" fill-rule="evenodd"/><path d="M158.761 1967.97C158.761 1967.97 166.149 1968.63 164.806 1981.14 164.134 1993.64 162.12 1998.25 168.164 2011.41 174.209 2023.91 191 2029.84 191 2029.84 178.911 2043 178.911 2043 178.911 2043 178.911 2043 162.12 2039.05 154.06 2021.28 146 2003.51 148.015 1985.09 150.03 1977.85 151.373 1971.26 155.403 1966 158.761 1967.97Z" fill="#2781A8" fill-rule="evenodd"/><path d="M257.33 2033.98C256.66 2032.65 255.99 2031.99 255.32 2031.32 253.98 2030.66 253.31 2029.99 251.97 2029.33 249.96 2028.66 247.28 2028 245.27 2029.33 244.6 2029.33 244.6 2029.33 243.93 2029.99 215.12 2046.61 215.12 2046.61 215.12 2046.61 210.43 2048.61 207.08 2051.93 204.4 2055.26 199.71 2061.24 197.7 2068.55 197.7 2076.53 197.7 2091.82 197.7 2091.82 197.7 2091.82 197.7 2126.39 197.7 2126.39 197.7 2126.39 197.7 2133.7 195.02 2140.35 191 2145 195.02 2144.34 198.37 2143.01 201.72 2141.01 242.59 2117.74 242.59 2117.74 242.59 2117.74 242.59 2117.74 242.59 2117.74 242.59 2117.74 251.3 2113.09 258 2103.78 258 2092.48 258 2037.31 258 2037.31 258 2037.31 258 2035.98 257.33 2035.31 257.33 2033.98Z" fill="#7FC3E3" fill-rule="evenodd"/><path d="M223 2042C223 2042 223 2042 223 2042 225.445 2044 227.278 2046.67 227.278 2050 227.278 2094.67 227.278 2094.67 227.278 2094.67 227.278 2100 229.722 2105.33 234 2108 234 2123.33 234 2123.33 234 2123.33 223 2130 223 2130 223 2130L223 2042Z" fill="#5F92AA" fill-rule="evenodd"/><path d="M235.033 2089.84C235.033 2045.88 235.033 2045.88 235.033 2045.88 235.033 2042.59 233.133 2039.97 230.6 2038 223 2042.59 223 2042.59 223 2042.59 225.533 2044.56 227.433 2047.19 227.433 2050.47 227.433 2094.44 227.433 2094.44 227.433 2094.44 227.433 2099.69 229.967 2104.94 234.4 2107.56 234.4 2122 234.4 2122 234.4 2122 242 2118.06 242 2118.06 242 2118.06 242 2102.97 242 2102.97 242 2102.97 237.567 2100.34 235.033 2095.09 235.033 2089.84Z" fill="#9FE0FF" fill-rule="evenodd"/><path d="M234 2107.52 242 2103 242 2118.16 234 2123 234 2107.52Z" fill="#7DCAEB" fill-rule="evenodd"/><path d="M272 2004.46C272 2001.75 270.064 1998.36 268.129 1997.68 267.484 1997 266.839 1997 266.193 1997 265.548 1997.68 265.548 1997.68 265.548 1997.68 252 2005.82 252 2005.82 252 2005.82 256.516 2016 256.516 2016 256.516 2016 270.064 2007.18 270.064 2007.18 270.064 2007.18 271.355 2007.18 272 2005.82 272 2004.46Z" fill="#0D2B38" fill-rule="evenodd"/><path d="M257 2013.47C257 2016.29 255.6 2017 253.5 2016.29 251.4 2014.88 250 2011.35 250 2008.53 250 2006.41 251.4 2005 253.5 2005.71 255.6 2007.12 257 2010.65 257 2013.47Z" fill="#2E373D" fill-rule="evenodd"/><path d="M253.13 1992.67C253.13 1992.67 262.913 1990 268.783 1995.33 274 2000.67 272.043 2007.33 270.739 2010 269.435 2012 261.609 2018 259 2018 257.043 2018 256.391 2015.33 256.391 2015.33 256.391 2015.33 259 2016.67 258.348 2011.33 257.043 2006.67 253.13 2005.33 253.13 2005.33 251.826 2006 251.826 2006 251.826 2006 251.174 2010 251.174 2010 251.174 2010 251.174 2010 251.174 2010.67 247.913 2011.33 244.652 2011.33 244.652 2011.33 244.652 2011.33 244.652 2011.33 244 1997.33 253.13 1992.67Z" fill="#FFAD91" fill-rule="evenodd"/><path d="M225.149 2041.37C225.149 2032.11 230.511 2022.85 238.553 2018.22 241.904 2016.23 241.904 2016.23 241.904 2016.23 245.925 2014.25 249.947 2014.91 253.298 2016.89 256.649 2015.57 256.649 2015.57 256.649 2015.57 256.649 2015.57 256.649 2015.57 256.649 2015.57 260 2012.92 254.638 2003 251.287 2005.65 251.287 2005.65 251.287 2005.65 251.287 2005.65 249.276 2006.97 249.276 2006.97 249.276 2006.97 245.255 2009.62 239.894 2009.62 235.872 2006.97 235.872 2007.63 235.872 2007.63 235.872 2007.63 233.191 2005.65 229.17 2005.65 225.819 2007.63 214.425 2014.25 212.415 2028.14 201.021 2034.75 197 2036.74 201.021 2046 205.043 2044.68 205.043 2044.68 205.043 2044.68 205.043 2044.68 206.383 2043.35 208.394 2042.69 209.734 2042.03 213.755 2039.38 218.447 2039.38 222.468 2042.03 226.489 2044.02 226.489 2044.02 226.489 2044.02 225.819 2043.35 225.149 2042.69 225.149 2041.37Z" fill="#C5ECFF" fill-rule="evenodd"/><path d="M207 2041.21C207 2038.59 205.625 2035.97 203.562 2034.66 202.875 2034 202.187 2034 201.5 2034.66 201.5 2034.66 201.5 2034.66 201.5 2034.66 186.375 2042.52 186.375 2042.52 186.375 2042.52 185 2043.17 185 2043.83 185 2045.79 185 2048.41 186.375 2051.03 188.437 2052.34 189.125 2053 190.5 2053 191.187 2052.34 205.625 2044.48 205.625 2044.48 205.625 2044.48 205.625 2044.48 205.625 2044.48 205.625 2044.48 206.312 2043.83 207 2043.17 207 2041.21Z" fill="#0D2B38" fill-rule="evenodd"/><path d="M250.256 2021C247 2021 248.954 2017.87 250.256 2016.62 251.558 2016 254.163 2015.37 256.116 2014.75 260.023 2012.87 265.884 2011 269.791 2011.62 271.744 2012.25 275 2013.5 273.047 2015.37 271.744 2016.62 269.14 2015.37 267.837 2015.37 264.581 2015.37 261.326 2016.62 258.721 2017.87 256.116 2018.5 252.861 2021 250.256 2021Z" fill="#5F92AA" fill-rule="evenodd"/><path d="M225 2041.92C225 2041.92 225 2041.92 225 2041.92 225 2044.64 227.694 2046 230.388 2044.64 255.306 2030.36 255.306 2030.36 255.306 2030.36 256.653 2029 258 2027.64 258 2025.6 258 2017.44 248.572 2012 241.837 2016.08 238.47 2018.12 238.47 2018.12 238.47 2018.12 230.388 2022.88 225 2032.4 225 2041.92Z" fill="#9FE0FF" fill-rule="evenodd"/><path d="M246.514 2019C249.757 2019 253 2021.67 253 2025.67 253 2026.33 253 2027 252.351 2027 229 2041 229 2041 229 2041 229 2033 233.54 2025.67 240.027 2021.67 241.973 2020.33 243.919 2019 246.514 2019" fill="#EDEDED" fill-rule="evenodd"/><path d="M188.783 2030.57C188.783 2030.57 198.565 2028 203.783 2033.14 209 2038.29 207.696 2044.71 205.739 2046.64 204.435 2049.21 196.609 2055 194.652 2055 192.044 2055 191.391 2051.79 191.391 2051.79 191.391 2051.79 194.652 2053.71 193.348 2048.57 192.696 2043.43 188.13 2042.14 188.13 2042.14 186.826 2042.79 186.826 2042.79 186.826 2042.79 186.826 2047.29 186.826 2047.29 186.826 2047.29 186.826 2047.29 184.87 2047.93 182.261 2046.64 179 2044.71 179 2042.79 179 2042.79 179 2042.79 182.913 2032.5 188.783 2030.57Z" fill="#FFAD91" fill-rule="evenodd"/><path d="M192 2050C192 2052.67 190.6 2054 188.5 2052.67 186.4 2051.33 185 2048.67 185 2046 185 2043.33 186.4 2042 188.5 2043.33 190.6 2044 192 2047.33 192 2050Z" fill="#1A5670" fill-rule="evenodd"/><path d="M203.333 2055C194 2053.71 212 2038.23 213.333 2036.94 215.333 2036.29 216 2035 218 2036.29 220 2038.23 214.667 2041.45 214 2042.1 211.333 2044.68 206 2048.55 205.333 2051.77 206 2053.06 204.667 2055 203.333 2055 202.667 2055 204 2055 203.333 2055Z" fill="#5F92AA" fill-rule="evenodd"/><path d="M817.677 2106.93C817.677 2106.93 819 2114.86 817.677 2117.5 817.015 2120.14 790.544 2136 781.941 2133.36 774 2131.38 785.25 2110.89 791.868 2104.29 797.824 2099 817.677 2106.93 817.677 2106.93Z" fill="#0D2B38" fill-rule="evenodd"/><path d="M843.338 2116.93C843.338 2116.93 844 2124.86 843.338 2127.5 842.015 2130.14 815.544 2146 806.941 2143.36 799 2141.38 810.25 2120.89 816.868 2114.29 822.823 2109 843.338 2116.93 843.338 2116.93Z" fill="#0D2B38" fill-rule="evenodd"/><path d="M845 1996.56C845 1996.56 843.667 2024.21 843.667 2031.45 843.667 2038.69 843.667 2116.37 843.667 2116.37 843.667 2116.37 834.333 2119 828.333 2119 821.667 2119 817 2113.73 817 2113.73 817 2113.73 801.667 2115.05 797 2110.44 793 2106.49 794.333 1988 794.333 1988L845 1996.56Z" fill="#1A5670" fill-rule="evenodd"/><path d="M792.969 1919C787.594 1944.19 787.594 1944.19 787.594 1944.19 768.781 1960.76 768.781 1960.76 768.781 1960.76 768.781 1960.76 764.75 1958.77 760.719 1961.42 754 1965.4 756.687 1968.05 756.687 1968.05 756.687 1968.05 760.047 1966.06 761.391 1968.05 763.406 1970.03 760.047 1972.69 760.047 1972.69 760.047 1972.69 762.062 1976 767.437 1974.01 770.797 1972.69 772.812 1968.05 772.812 1968.05 797 1954.79 797 1954.79 797 1954.79L792.969 1919Z" fill="#FFAD91" fill-rule="evenodd"/><path d="M792.923 1919C788 1944.05 788 1944.05 788 1944.05 788 1944.05 788.615 1946.02 796 1948L792.923 1919Z" fill="#2781A8" fill-rule="evenodd"/><path d="M828.989 1910.58C828.989 1910.58 843.411 1920.45 845.378 1926.37 848 1932.3 842.1 1965.2 844.067 1975.73 846.033 1986.92 846.033 1992.18 844.067 1996.79 842.1 2001.39 826.367 2006 813.911 2005.34 800.8 2004.68 791.622 1994.15 792.933 1988.23 795.555 1969.15 789 1929.66 792.933 1919.79 796.211 1909.92 806.044 1904 806.044 1904L828.989 1910.58Z" fill="#E84C3D" fill-rule="evenodd"/><path d="M834.273 1881.28C834.273 1881.28 835 1885.21 833.545 1889.14 832.818 1893.07 827.727 1897 827.727 1897 827 1878 827 1878 827 1878L834.273 1881.28Z" fill="#805749" fill-rule="evenodd"/><path d="M829 1891C829 1910.33 829 1910.33 829 1910.33 829 1910.33 821.667 1917 815.667 1917 809.667 1917 809 1909 809 1909L829 1891Z" fill="#E69C83" fill-rule="evenodd"/><path d="M826.667 1882.7C826.667 1882.7 817.333 1884 807.333 1881.4 798 1879.44 796 1874.23 796 1874.23 796 1874.23 799.333 1856 816 1857.3 832.667 1859.26 834 1881.4 834 1881.4 834 1881.4 830.667 1882.7 826.667 1882.7Z" fill="#E84C3D" fill-rule="evenodd"/><path d="M779.698 2156.35C816.019 2135.46 816.019 2135.46 816.019 2135.46 817.34 2134.81 818 2134.16 818 2132.85 818 2131.55 817.34 2130.9 816.019 2130.24 755.264 2095 755.264 2095 755.264 2095 753.943 2095 753.283 2095 751.962 2095 714.981 2116.54 714.981 2116.54 714.981 2116.54 713.66 2117.19 713 2119.15 714.321 2120.45 714.981 2121.76 716.962 2122.41 718.283 2121.11 753.283 2101.53 753.283 2101.53 753.283 2101.53 808.755 2132.85 808.755 2132.85 808.755 2132.85 776.396 2151.13 776.396 2151.13 776.396 2151.13 775.076 2151.78 774.415 2153.74 775.076 2155.04 776.396 2157 777.717 2157 779.698 2156.35Z" fill="#081C25" fill-rule="evenodd"/><path d="M817.896 2132.37C817.896 2011.48 817.896 2011.48 817.896 2011.48 829.034 2004.91 829.034 2004.91 829.034 2004.91 830.345 2004.26 831 2002.28 830.345 2000.97 829.034 1999 827.724 1999 826.414 1999.66 813.31 2006.88 813.31 2006.88 813.31 2006.88 812 2007.54 812 2008.85 812 2009.51 812 2132.37 812 2132.37 812 2132.37 812 2133.69 813.31 2135 814.621 2135 816.586 2135 817.896 2133.69 817.896 2132.37Z" fill="#081C25" fill-rule="evenodd"/><path d="M756.727 2096.72C756.727 1975.85 756.727 1975.85 756.727 1975.85 763.091 1971.91 763.091 1971.91 763.091 1971.91 765 1971.25 765 1969.28 764.364 1967.97 763.727 1966.66 761.818 1966 760.545 1966.66 752.273 1971.91 752.273 1971.91 752.273 1971.91 751.636 1972.57 751 1973.23 751 1974.54 751 2096.72 751 2096.72 751 2096.72 751 2098.69 752.273 2100 753.546 2100 755.455 2100 756.727 2098.69 756.727 2096.72Z" fill="#081C25" fill-rule="evenodd"/><path d="M724 2132.66C724 2120.86 724 2120.86 724 2120.86 780 2152.31 780 2152.31 780 2152.31 780 2167.38 780 2167.38 780 2167.38 780 2168.69 781.333 2170 783.333 2170 784.667 2170 786 2168.69 786 2167.38 786 2150.34 786 2150.34 786 2150.34 786 2149.69 785.333 2148.38 784.667 2147.72 722.667 2113 722.667 2113 722.667 2113 722 2113 720.667 2113 720 2113 718.667 2113.66 718 2114.97 718 2115.62 718 2132.66 718 2132.66 718 2132.66 718 2133.97 719.333 2135.28 721.333 2135.28 722.667 2135.28 724 2133.97 724 2132.66Z" fill="#081C25" fill-rule="evenodd"/><path d="M739.707 2128.34C772.655 2109.92 772.655 2109.92 772.655 2109.92 774 2109.26 774 2107.29 773.328 2105.97 772.655 2104.66 770.638 2104 769.293 2104.66 737.017 2123.08 737.017 2123.08 737.017 2123.08 735.672 2124.39 735 2125.71 735.672 2127.03 736.345 2129 738.362 2129 739.707 2128.34" fill="#081C25" fill-rule="evenodd"/><path d="M764.241 2142.34C795.035 2124.58 795.035 2124.58 795.035 2124.58 796.345 2123.26 797 2121.95 795.69 2119.97 795.035 2118.66 793.069 2118 791.759 2119.32 760.966 2137.08 760.966 2137.08 760.966 2137.08 759.655 2137.74 759 2139.71 760.31 2141.03 760.966 2142.34 762.931 2143 764.241 2142.34" fill="#081C25" fill-rule="evenodd"/><path d="M751.981 1976.86C813.379 2011.35 813.379 2011.35 813.379 2011.35 814.699 2012 816.68 2012 817.34 2010.05 818 2008.75 818 2007.44 816.02 2006.14 755.282 1971.65 755.282 1971.65 755.282 1971.65 753.301 1971 751.981 1971 750.66 1972.3 750 1974.25 750.66 1975.56 751.981 1976.86" fill="#081C25" fill-rule="evenodd"/><path d="M698 2065 755 2098.24 755 2166 698 2132.76 698 2065Z" fill="#CD8B74" fill-rule="evenodd"/><path d="M698 2065.16 755.341 2056 813 2065.16 755.341 2098 698 2065.16Z" fill="#5DBDE6" fill-rule="evenodd"/><path d="M813 2065 813 2132.76 755 2166 755 2098.24 813 2065Z" fill="#E69C83" fill-rule="evenodd"/><path d="M698 2022 755 2055.07 755 2098 698 2064.93 698 2022Z" fill="#E69C83" fill-rule="evenodd"/><path d="M698 2021.84 755.341 1989 813 2021.84 755.341 2055 698 2021.84Z" fill="#FFAD91" fill-rule="evenodd"/><path d="M813 2022 813 2064.93 755 2098 755 2055.07 813 2022Z" fill="#CD8B74" fill-rule="evenodd"/><path d="M705.667 2032 700 2038 703.333 2039.89 703.333 2047.16 708.333 2050 708.333 2042.74 711 2044 705.667 2032Z" fill="#805749" fill-rule="evenodd"/><path d="M764.667 2098 770 2104.11 766.667 2105.39 766.667 2112.79 761.667 2116 761.667 2108.61 759 2109.89 764.667 2098Z" fill="#805749" fill-rule="evenodd"/><path d="M807 2147.67C807 2141.67 811 2135 815 2132.33 817 2131.67 819 2131 820.333 2132.33 823.667 2134.33 823.667 2134.33 823.667 2134.33 824.333 2134.33 824.333 2134.33 824.333 2134.33 824.333 2134.33 824.333 2134.33 824.333 2134.33 824.333 2134.33 824.333 2134.33 824.333 2134.33 826.333 2135.67 827 2137.67 827 2141 827 2146.33 823.667 2153 819 2155.67 817 2157 815.667 2157 814.333 2156.33 814.333 2156.33 814.333 2156.33 814.333 2156.33 814.333 2156.33 814.333 2156.33 814.333 2156.33 813.667 2156.33 813.667 2156.33 813.667 2156.33 810.333 2153.67 810.333 2153.67 810.333 2153.67 810.333 2153.67 810.333 2153.67 810.333 2153.67 808.333 2153 807 2151 807 2147.67Z" fill="#0D2B38" fill-rule="evenodd"/><path d="M811 2149.33C811 2155.33 815 2158 819 2155.33 823.667 2152.67 827 2146 827 2140.67 827 2134.67 823.667 2132 819 2134.67 815 2136.67 811 2144 811 2149.33Z" fill="#2E373D" fill-rule="evenodd"/><path d="M815 2147.21C815 2149.74 817 2151 819 2149.74 821 2148.47 823 2145.32 823 2142.79 823 2140.26 821 2139 819 2140.26 817 2140.9 815 2144.05 815 2147.21Z" fill="#CECECE" fill-rule="evenodd"/><path d="M817 2146.09C817 2148.27 817.667 2149 819 2148.27 820.333 2147.55 821 2145.36 821 2143.91 821 2141.73 820.333 2141 819 2141.73 817.667 2142.45 817 2144.64 817 2146.09Z" fill="#2E373D" fill-rule="evenodd"/><path d="M811 2149.33C811 2155.33 815 2158 819 2155.33 823.667 2152.67 827 2146 827 2140.67 827 2134.67 823.667 2132 819 2134.67 815 2136.67 811 2144 811 2149.33Z" fill="#1A5670" fill-rule="evenodd"/><path d="M815 2147.21C815 2149.74 817 2151 819 2149.74 821 2148.47 823 2145.32 823 2142.79 823 2140.26 821 2139 819 2140.26 817 2140.9 815 2144.05 815 2147.21Z" fill="#D6EEF9" fill-rule="evenodd"/><path d="M817 2146.09C817 2148.27 817.667 2149 819 2148.27 820.333 2147.55 821 2145.36 821 2143.91 821 2141.73 820.333 2141 819 2141.73 817.667 2142.45 817 2144.64 817 2146.09Z" fill="#1A5670" fill-rule="evenodd"/><path d="M799.654 1885C799.654 1885 799 1897 800.961 1901.67 802.923 1907 804.231 1909.67 808.154 1910.33 812.731 1911 822.538 1907 825.154 1903 827.769 1899.67 829.077 1892.33 829.077 1892.33 829.077 1892.33 831.692 1889.67 832.346 1886.33 833 1883.67 833 1881 830.385 1881 828.423 1881 826.461 1883 826.461 1883 824.5 1883.67 824.5 1883.67 824.5 1883.67L799.654 1885Z" fill="#FFAD91" fill-rule="evenodd"/><path d="M807.667 1881.93C798.333 1880.04 796.333 1875 796.333 1875 796.333 1875 789 1880.04 790.333 1885.07 792.333 1889.48 797.667 1892 807 1891.37 816.333 1891.37 827 1883.19 827 1883.19 827 1883.19 817.667 1884.44 807.667 1881.93Z" fill="#2781A8" fill-rule="evenodd"/><path d="M831 1958.53C830.333 1951.89 829.667 1944.58 830.333 1937.94 831 1931.96 832.333 1925.98 835.667 1923.99 842.333 1920 848.333 1924.65 849 1935.95 849 1946.58 848.333 1968.5 847.667 1973.82 846.333 1979.13 837 1998.4 837 1998.4 837 1998.4 836.333 2009.69 831.667 2013.68 827 2017 819 2010.36 819 2010.36 819 2010.36 823 2009.03 823.667 2006.37 823.667 2003.71 820.333 2003.05 820.333 2003.05 817.667 2004.38 817.667 2004.38 817.667 2004.38 817.667 2004.38 817 2000.39 819.667 1996.4 822.333 1993.08 827.667 1991.09 827.667 1991.09 833 1968.5 833 1968.5 833 1968.5L831 1958.53Z" fill="#FFAD91" fill-rule="evenodd"/><path d="M849 1935.88C848.345 1924.63 842.448 1920 835.897 1923.97 832.621 1925.95 831.311 1931.91 830.655 1937.86 830 1944.48 830.655 1951.75 831.311 1958.37 831.966 1963 831.966 1963 831.966 1963 835.897 1963 842.448 1963 848.345 1960.35 849 1951.75 849 1941.83 849 1935.88Z" fill="#2781A8" fill-rule="evenodd"/><path d="M800 1935.89C800 1930.63 803.478 1928 807.652 1929.97 812.522 1932.61 816 1939.18 816 1945.11 816 1950.37 812.522 1953 807.652 1950.37 803.478 1948.39 800 1941.82 800 1935.89ZM801.391 1936.55C801.391 1941.16 804.174 1946.42 807.652 1948.39 811.826 1950.37 814.609 1948.39 814.609 1943.79 814.609 1939.18 811.826 1933.92 807.652 1931.95 804.174 1929.97 801.391 1931.95 801.391 1936.55Z" fill="#D6EEF9" fill-rule="evenodd"/><path d="M814.941 1951.34C815.618 1951.34 816.294 1951.34 816.294 1951.34 817.647 1952 818.324 1952 818.324 1951.34 819 1950.69 819 1950.03 819 1949.37 818.324 1946.74 815.618 1943.46 814.941 1943.46 814.265 1944.77 814.265 1944.77 814.265 1944.77 815.618 1946.09 816.971 1948.06 817.647 1949.37 817.647 1949.37 817.647 1949.37 816.971 1950.03 816.971 1950.03 816.971 1950.03 816.294 1950.03 811.559 1948.06 800.059 1936.89 798.03 1933.6 797.353 1932.29 797.353 1932.29 797.353 1932.29 798.03 1931.63 799.383 1932.29 801.412 1933.6 801.412 1931.63 801.412 1931.63 801.412 1931.63 800.059 1930.97 796.677 1929 796 1930.31 796 1931.63 796 1932.29 797.353 1934.26 799.383 1938.2 810.206 1948.06 814.941 1951.34Z" fill="#D6EEF9" fill-rule="evenodd"/><path d="M801 1871C801 1868.33 802.909 1867 804.818 1868.33 806.091 1869.67 808 1872.33 808 1875 808 1877.67 806.091 1879 804.818 1877.67 802.909 1876.33 801 1873.67 801 1871ZM801.636 1871C801.636 1873.67 802.909 1876.33 804.818 1877 806.091 1877.67 807.364 1877 807.364 1875 807.364 1872.33 806.091 1870.33 804.818 1869 802.909 1868.33 801.636 1869 801.636 1871Z" fill="#D6EEF9" fill-rule="evenodd"/><path d="M807.75 1878C807.75 1878 807.75 1878 807.75 1878 808.375 1878 809 1878 809 1878 809 1878 809 1877.37 809 1877.37 809 1876.12 807.75 1874.87 807.75 1874.25 807.125 1874.87 807.125 1874.87 807.125 1874.87 807.75 1875.5 808.375 1876.75 808.375 1876.75 808.375 1877.37 808.375 1877.37 808.375 1877.37 808.375 1877.37 808.375 1877.37 807.75 1877.37 805.875 1876.75 800.875 1871.75 800.25 1869.87 800.25 1869.87 799.625 1869.25 799.625 1869.25 800.25 1869.25 800.875 1869.87 801.5 1869.87 801.5 1869.25 801.5 1869.25 801.5 1869.25 800.875 1869.25 799.625 1868 799.625 1868.62 799 1869.25 799.625 1869.87 799.625 1870.5 800.875 1872.37 805.25 1876.75 807.75 1878Z" fill="#D6EEF9" fill-rule="evenodd"/><path d="M673 1663.47 673 1598 832 1689.85 832 1755 673 1663.47Z" fill="#C5ECFF" fill-rule="evenodd"/><path d="M898.682 1602 832 1690.7 832 1755 866.611 1735.36 866.611 1726.81 923.133 1693.86 931.071 1698.61 966 1678.02 966 1613.72 898.682 1602Z" fill="#9FE0FF" fill-rule="evenodd"/><path d="M654 1608.32 820.842 1705 899 1601.3 742.685 1511 654 1608.32Z" fill="#E84C3D" fill-rule="evenodd"/><path d="M743 1511 815.689 1515.82 989 1617 898.535 1601.9 743 1511Z" fill="#B03A2E" fill-rule="evenodd"/><path d="M931 1698.05 931 1636 866 1672.91 866 1727 922.995 1693.91 931 1698.05Z" fill="#5F92AA" fill-rule="evenodd"/><path d="M931 1699 923 1694.2 923 1639.84 931 1636 931 1699Z" fill="#7FC3E3" fill-rule="evenodd"/><path d="M898.5 1641.7C892.594 1645 888 1641.04 888 1633.77 888 1625.85 892.594 1616.6 898.5 1613.3 904.406 1610 909 1613.3 909 1621.23 909 1629.15 904.406 1638.4 898.5 1641.7ZM898.5 1615.94C893.906 1618.58 889.969 1625.85 889.969 1632.45 889.969 1639.06 893.906 1641.7 898.5 1639.06 903.094 1636.42 907.031 1628.49 907.031 1622.55 907.031 1615.94 903.094 1612.64 898.5 1615.94Z" fill="#D6EEF9" fill-rule="evenodd"/><path d="M888.617 1642.65C888.617 1642.65 887.958 1643.33 887.298 1643.33 885.979 1644 885.319 1644 884.66 1643.33 884 1642.65 884 1641.31 884 1639.96 884.66 1636.59 888.617 1631.88 889.277 1631.2 889.936 1633.22 889.936 1633.22 889.936 1633.22 888.617 1634.57 886.638 1637.94 885.979 1639.96 885.979 1639.96 885.979 1640.63 885.979 1640.63 885.979 1640.63 886.638 1641.31 887.298 1640.63 893.234 1637.94 909.723 1621.78 912.362 1617.06 913.021 1615.71 913.021 1615.04 913.021 1615.04 913.021 1615.04 910.383 1615.71 907.745 1617.06 907.745 1615.04 907.745 1615.04 907.745 1615.04 909.723 1613.69 913.681 1611 915 1613.02 915 1614.37 915 1615.71 913.681 1618.41 910.383 1623.8 895.872 1638.61 888.617 1642.65Z" fill="#D6EEF9" fill-rule="evenodd"/><path d="M458.188 2024.82C415.156 2024.82 374.11 2016.23 342.995 1998.37 275.467 1959.35 284.074 1891.24 362.193 1846.27 404.563 1821.15 459.512 1808.58 511.812 1808.58 554.844 1808.58 595.89 1817.18 626.344 1835.03 694.533 1874.05 685.926 1942.82 607.807 1987.79 564.775 2012.26 509.826 2024.82 458.188 2024.82M515.122 1798C456.202 1798 393.971 1812.55 345.643 1840.32 256.269 1891.9 247 1969.27 323.796 2013.58 358.883 2034.08 405.225 2044 454.216 2044 513.136 2044 575.367 2029.45 624.357 2001.02 713.069 1950.1 723 1872.06 645.542 1827.76 611.117 1807.92 564.113 1798 515.122 1798" fill="#EAF7FC" fill-rule="evenodd"/><path d="M473.578 1959.61C456.368 1959.61 439.82 1955.64 427.905 1949.04 400.766 1933.18 404.076 1906.1 435.186 1887.61 452.397 1877.7 474.24 1873.07 494.76 1873.07 512.632 1873.07 528.518 1876.38 541.095 1883.64 568.234 1898.83 564.924 1926.58 533.152 1944.41 516.604 1954.32 494.098 1959.61 473.578 1959.61M511.308 1809C459.016 1809 404.076 1821.55 361.712 1846.65 283.605 1891.57 275 1959.61 342.517 1998.58 373.627 2016.41 414.667 2025 457.692 2025 509.322 2025 564.262 2012.45 607.288 1988.01 685.395 1943.09 694 1874.39 625.822 1835.42 595.373 1817.59 554.333 1809 511.308 1809" fill="#D8EFF9" fill-rule="evenodd"/><path d="M494.731 1873C474.269 1873 452.486 1877.65 435.324 1887.61 404.301 1906.21 401 1933.44 428.063 1949.37 439.945 1956.02 456.447 1960 473.609 1960 494.071 1960 516.514 1954.69 533.016 1944.73 564.699 1926.79 568 1898.9 540.937 1883.63 528.395 1876.32 512.553 1873 494.731 1873" fill="#C7E8F6" fill-rule="evenodd"/><path d="M312 1681C312 1585.45 389.455 1508 485 1508 580.545 1508 658 1585.45 658 1681 658 1776.55 580.545 1854 485 1854 389.455 1854 312 1776.55 312 1681Z" fill="#658EDF" fill-rule="evenodd"/><path d="M358.282 1777.63C360.677 1777.96 362.989 1778.79 364.971 1780.11 364.971 1780.11 364.971 1780.11 373.56 1778.13 373.56 1778.13 373.56 1778.13 384.79 1784.73 384.79 1784.73 384.79 1784.73 388.094 1784.07 394.7 1782.75 401.307 1786.71 402.628 1793.31 402.628 1793.31 402.628 1793.31 413.198 1796.61 413.198 1796.61 413.198 1796.61 419.805 1794.63 426.411 1793.31 433.018 1797.27 435 1803.87 435 1803.87 435 1803.87 428.393 1813.76 428.393 1813.76 428.393 1813.76 431.697 1828.28 433.018 1832.9 429.715 1838.18 425.09 1839.5L421.249 1842 408.553 1836.79 393.592 1828.31 394.152 1828.01 386.876 1824.06 383.332 1821.41 370.96 1811.92 363.167 1804.43 364.176 1804.15 357.741 1798.39 348.754 1787.37 349.115 1787.37C349.115 1787.37 349.115 1787.37 347.134 1778.79 347.134 1778.79 347.134 1778.79 351.097 1778.13 353.41 1777.47 355.887 1777.3 358.282 1777.63ZM338.968 1654.28C343.211 1654.84 346.803 1658.18 347.794 1662.64 347.794 1662.64 347.794 1662.64 348.455 1664.62 349.115 1667.92 351.758 1669.24 354.401 1668.58 354.401 1668.58 354.401 1668.58 352.419 1660 355.061 1659.34 357.704 1660.66 358.364 1663.3 358.364 1663.3 358.364 1663.3 360.346 1673.2 366.953 1671.88 372.899 1675.18 374.22 1681.78 374.22 1681.78 374.22 1681.78 374.881 1685.08 374.881 1685.08 374.881 1685.08 361.668 1688.38 357.704 1689.03 355.722 1692.99 356.383 1696.95 356.383 1696.95 356.383 1696.95 362.989 1695.63 364.31 1700.25 361.007 1705.53 356.383 1706.85 356.383 1706.85 356.383 1706.85 350.437 1708.17 351.758 1714.11 348.455 1719.39 342.509 1720.71 342.509 1720.71 342.509 1720.71 339.866 1721.37 341.188 1725.99 339.866 1731.27 336.563 1735.23 336.563 1735.23 336.563 1735.23 331.278 1741.83 331.278 1741.83 331.278 1741.83 333.26 1751.73 333.92 1753.71 333.59 1755.69 332.599 1757.34L330.697 1758.83 324.614 1746.08C316.801 1726.82 312.408 1706.04 312 1684.67L312.302 1677.77 313.44 1677.49C314.762 1677.16 317.404 1676.5 322.689 1675.18 322.689 1675.18 322.689 1675.18 325.332 1685.08 325.993 1689.03 329.957 1691.01 333.26 1690.35 333.26 1690.35 333.26 1690.35 329.957 1676.5 329.957 1676.5 329.957 1676.5 339.206 1674.52 339.206 1674.52 339.206 1674.52 334.581 1654.72 336.068 1654.22 337.554 1654.1 338.968 1654.28ZM329.957 1627C329.957 1627 329.957 1627 331.278 1631.62 332.599 1638.22 328.635 1644.82 322.029 1646.14 319.717 1646.63 317.652 1647.62 315.887 1648.97L315.239 1649.72 316.667 1641.39 319.155 1633.22 319.386 1634.26C319.386 1634.26 319.386 1634.26 329.957 1627Z" fill="#33D9B2" fill-rule="evenodd"/><path d="M327.457 1612 329.734 1613.71C331.361 1614.93 331.361 1614.93 331.361 1614.93 337.221 1619.49 341.779 1626.01 343.081 1633.18 345.685 1633.84 345.685 1633.84 345.685 1633.84 348.941 1635.14 350.894 1638.4 349.592 1641.66 340.477 1639.05 340.477 1639.05 340.477 1639.05 339.826 1641.01 339.826 1641.01 339.826 1641.01 339.174 1642.96 340.477 1644.92 341.779 1645.57 343.732 1646.87 344.383 1649.48 343.081 1651.44 340.477 1656 340.477 1656 340.477 1656 326.153 1645.57 326.153 1645.57 326.153 1645.57 329.571 1639.7 329.693 1633.1 326.519 1627.69L323 1623.63Z" fill="#33D9B2" fill-rule="evenodd"/><path d="M355.056 1574.12C354.4 1574.12 354.4 1574.12 354.4 1574.12 343.904 1576.77 338 1586.7 339.968 1597.3 356.368 1593.32 356.368 1593.32 356.368 1593.32 362.928 1621.8 362.928 1621.8 362.928 1621.8 365.552 1633.72 376.704 1641 388.512 1639.68 385.888 1625.77 385.888 1625.77 385.888 1625.77 402.944 1621.8 413.44 1603.92 409.504 1586.7 406.88 1574.12 406.88 1574.12 406.88 1574.12 414.752 1572.14 420 1563.53 418.032 1555.58 417.376 1553.59 417.376 1553.59 417.376 1553.59 403.6 1556.91 403.6 1556.91 403.6 1556.91 401.632 1548.3 393.104 1543 385.232 1544.99 383.264 1545.65 383.264 1545.65 383.264 1545.65 379.328 1546.31 376.704 1550.28 377.36 1554.92 361.616 1558.23 361.616 1558.23 361.616 1558.23L355.056 1574.12Z" fill="#33D9B2" fill-rule="evenodd"/><path d="M430.344 1625C410 1629.77 410 1629.77 410 1629.77 411.313 1635.91 417.219 1640 423.125 1638.64 425.094 1637.95 425.094 1637.95 425.094 1637.95 423.781 1632.5 423.781 1632.5 423.781 1632.5 426.406 1631.82 426.406 1631.82 426.406 1631.82 429.031 1631.14 431 1628.41 430.344 1625Z" fill="#33D9B2" fill-rule="evenodd"/><path d="M432 1670.11C420 1672.8 420 1672.8 420 1672.8 421.333 1676.85 424.667 1678.87 428.667 1678.2 429.333 1678.2 429.333 1678.2 429.333 1678.2 430.667 1682.91 430.667 1682.91 430.667 1682.91 425.333 1691 425.333 1691 425.333 1691 432 1688.98 432 1688.98 432 1688.98 435.333 1688.3 437.333 1684.93 436 1681.57 435.333 1676.17 435.333 1676.17 435.333 1676.17 437.333 1677.52 437.333 1677.52 437.333 1677.52 439.333 1686.28 439.333 1686.28 439.333 1686.28 444 1685.61 446 1681.57 445.333 1677.52 445.333 1676.17 445.333 1676.17 445.333 1676.17 441.333 1673.48 441.333 1673.48 441.333 1673.48 440 1666.74 440 1666.74 440 1666.74 438.667 1662.7 434.667 1660 430 1660.67L432 1670.11Z" fill="#33D9B2" fill-rule="evenodd"/><path d="M564.103 1528 578.64 1536.18C613.526 1558.64 640.498 1593.68 652.077 1636.96 655.937 1651.39 657.858 1665.88 658 1680.16L656.914 1701.1 654.314 1700.13C651.508 1698.39 649.361 1695.58 648.701 1692.28 648.701 1692.28 648.701 1692.28 648.041 1690.3 648.041 1690.3 648.041 1690.3 639.457 1692.28 639.457 1692.28 639.457 1692.28 640.117 1695.58 641.438 1700.87 638.136 1705.5 632.853 1706.82 632.853 1706.82 632.853 1706.82 634.834 1714.75 636.155 1720.69 632.193 1726.64 626.25 1727.96 626.25 1727.96 626.25 1727.96 622.948 1713.43 622.948 1713.43 622.948 1713.43 615.685 1708.14 615.685 1708.14 615.685 1708.14 613.704 1699.55 613.704 1699.55 613.704 1699.55 607.101 1701.53 607.101 1701.53 607.101 1701.53 593.894 1692.94 585.97 1696.91 576.726 1696.91 568.802 1691.62 568.802 1691.62 568.802 1691.62 564.179 1688.98 561.538 1694.26 562.859 1700.87 567.481 1704.17 567.481 1704.17 567.481 1704.17 572.103 1706.82 576.065 1701.53 583.329 1700.21 588.611 1703.51 588.611 1703.51 588.611 1703.51 589.272 1704.17 589.272 1704.17 589.272 1704.17 572.103 1724.66 569.462 1728.62 564.84 1729.95 560.218 1728.62 560.218 1728.62 560.218 1728.62 558.897 1721.36 558.897 1721.36 558.897 1721.36 538.427 1699.55 535.785 1702.19 535.785 1706.16 537.766 1708.8 537.766 1708.8 537.766 1708.8 555.595 1729.29 558.897 1733.25 564.179 1735.23 569.462 1733.91 569.462 1733.91 569.462 1733.91 576.065 1732.59 579.367 1731.93 582.008 1735.23 580.027 1737.88 580.027 1737.88 580.027 1737.88 562.859 1765.63 562.859 1765.63 562.859 1765.63 567.481 1786.78 567.481 1786.78 567.481 1786.78 560.878 1798.01 560.878 1798.01 560.878 1798.01 562.198 1801.98 562.859 1805.94 560.218 1810.57 555.595 1811.23 558.237 1822.46 551.633 1833.04 541.068 1835.68 541.068 1835.68 541.068 1835.68 533.805 1837 533.805 1837 533.805 1837 529.842 1825.77 529.842 1825.77 529.842 1825.77 521.258 1819.16 521.258 1819.16 521.258 1819.16 521.258 1813.21 521.258 1813.21 521.258 1813.21 515.976 1804.62 512.674 1799.99 513.334 1793.39 517.296 1789.42 517.296 1789.42 517.296 1789.42 511.353 1779.51 511.353 1779.51 511.353 1779.51 506.071 1777.53 506.071 1777.53 506.071 1777.53 502.769 1767.61 501.449 1764.31 498.147 1762.99 494.845 1764.31 494.845 1764.31 494.845 1764.31 490.223 1759.68 490.223 1759.68 490.223 1759.68 484.28 1762.33 471.073 1768.94 454.565 1765.63 445.321 1753.74 445.321 1753.74 445.321 1753.74 444 1729.29 444 1729.29 444 1729.29 445.981 1728.62 451.924 1724.66 455.226 1717.39 452.584 1710.12 452.584 1710.12 452.584 1710.12 486.921 1693.6L488.242 1702.85C488.242 1702.85 488.242 1702.85 494.845 1703.51 501.449 1704.83 507.391 1701.53 510.693 1696.24 510.693 1696.24 510.693 1696.24 527.201 1701.53 527.201 1701.53 527.201 1701.53 533.144 1697.57 536.446 1695.58 537.106 1690.96 535.125 1687.65 535.125 1687.65 535.125 1687.65 532.484 1684.35 532.484 1684.35 532.484 1684.35 531.823 1685.01 526.541 1688.31 519.277 1688.98 513.995 1685.67 513.995 1685.67 513.995 1685.67 512.674 1692.94 512.674 1692.94 512.674 1692.94 510.693 1692.28 507.391 1691.62 504.09 1688.31 503.429 1684.35 503.429 1684.35 503.429 1684.35 501.449 1679.06 500.788 1677.08 498.807 1675.76 496.166 1676.42 496.166 1676.42 496.166 1676.42 499.468 1690.3 499.468 1690.3 499.468 1690.3 491.544 1695.58 490.223 1693.6 490.883 1690.96 492.864 1690.3 492.864 1690.3 492.864 1690.3 494.185 1689.64 494.185 1689.64 494.185 1689.64 493.525 1685.67 493.525 1685.67 493.525 1685.67 490.883 1686.33 486.261 1687.65 480.978 1684.35 480.318 1679.72 480.318 1679.72 480.318 1679.72 471.734 1681.71 471.734 1681.71 471.734 1681.71 471.734 1682.37 473.055 1686.99 470.413 1691.62 465.791 1692.94 465.791 1692.94 465.791 1692.94 466.451 1696.91 467.112 1698.89 465.791 1701.53 463.15 1702.19 457.867 1703.51 453.245 1700.21 451.924 1694.92 449.943 1695.58 447.302 1694.26 446.642 1691.62 446.642 1691.62 446.642 1691.62 445.981 1688.98 445.981 1688.98 445.981 1688.98 458.527 1685.67 461.829 1685.01 463.15 1682.37 462.489 1679.72 458.527 1680.38 453.905 1677.74 453.245 1673.78 453.245 1673.78 453.245 1673.78 453.245 1673.12 453.245 1673.12 453.245 1673.12 459.848 1671.13 458.527 1665.19 462.489 1658.58 469.093 1657.26 469.093 1657.26 469.093 1657.26 470.413 1657.26 470.413 1657.26 470.413 1657.26 470.413 1655.93 469.753 1653.29 471.734 1649.99 474.375 1649.33 474.375 1649.33 474.375 1649.33 475.696 1655.93 475.696 1655.93 475.696 1655.93 478.337 1655.27 485.601 1653.29 489.563 1646.68 488.242 1639.41 488.242 1639.41 488.242 1639.41 496.166 1634.79 498.807 1633.47 499.468 1630.16 498.147 1627.52 498.147 1627.52 498.147 1627.52 488.242 1634.13 488.242 1634.13 488.242 1634.13 486.261 1627.52 485.601 1623.55 481.639 1621.57 478.337 1622.23 478.337 1622.23 478.337 1622.23 481.639 1636.11 482.959 1641.4 479.658 1646.68 474.375 1648 474.375 1648 474.375 1648 471.734 1638.75 471.734 1638.75 471.734 1638.75 471.734 1639.41 467.112 1643.38 460.508 1643.38 455.886 1640.07 455.886 1640.07 455.886 1640.07 469.093 1619.59 465.791 1606.37 473.715 1593.82 486.921 1591.17 486.921 1591.17 486.921 1591.17 488.902 1590.51 488.902 1590.51 488.902 1590.51 490.223 1596.46 490.223 1596.46 490.223 1596.46 495.506 1595.14 502.769 1593.82 509.372 1597.78 510.693 1605.05 510.693 1605.05 510.693 1605.05 500.788 1607.03 500.788 1607.03 500.788 1607.03 510.693 1617.61 510.693 1617.61 510.693 1617.61 524.56 1595.14 533.144 1593.16 538.427 1584.56 536.446 1576.63 536.446 1576.63 536.446 1576.63 534.465 1569.37 534.465 1569.37 534.465 1569.37 543.049 1567.38 552.294 1565.4 558.237 1556.15 556.256 1546.24 554.77 1539.3 557.37 1532.36 562.941 1528.49Z" fill="#33D9B2" fill-rule="evenodd"/><path d="M467.968 1548C461.193 1549.35 461.193 1549.35 461.193 1549.35 453.742 1551.37 449 1558.8 450.355 1566.22 451.71 1571.62 457.129 1575 462.548 1573.65 459.839 1562.17 459.839 1562.17 459.839 1562.17 465.935 1560.82 470 1554.75 468.645 1548.67L467.968 1548Z" fill="#33D9B2" fill-rule="evenodd"/><path d="M526.4 1576.82C526.4 1576.82 526.4 1576.82 526.4 1576.82 521.143 1573.59 519.172 1567.12 521.143 1561.29 521.143 1560.65 521.143 1560.65 521.143 1560.65 527.714 1557.41 527.714 1557.41 527.714 1557.41 531 1551.59 531 1551.59 531 1551.59 526.4 1549 520.486 1550.29 517.857 1554.82 511.286 1564.53 511.286 1564.53 511.286 1564.53 508 1569.71 509.971 1576.18 515.229 1579.41 519.172 1582 524.429 1580.71 526.4 1576.82Z" fill="#33D9B2" fill-rule="evenodd"/><path d="M577.407 1795.47C573 1806.68 573 1806.68 573 1806.68 578.037 1808 582.444 1805.36 584.333 1800.74 586.222 1794.15 586.222 1794.15 586.222 1794.15 586.222 1793.49 586.222 1793.49 586.222 1793.49 590 1788.87 589.37 1782.28 586.222 1777 581.185 1784.91 581.185 1784.91 581.185 1784.91 577.407 1784.91 574.259 1788.87 576.148 1792.83L577.407 1795.47Z" fill="#33D9B2" fill-rule="evenodd"/><path d="M633 1729.41C635.461 1730.71 635.461 1730.71 635.461 1730.71 637.308 1732 639.769 1731.35 641 1729.41 637.923 1727.47 637.923 1727.47 637.923 1727.47 639.154 1725.53 639.154 1725.53 639.154 1725.53 639.769 1723.59 639.154 1721.65 637.923 1721L633 1729.41Z" fill="#33D9B2" fill-rule="evenodd"/><path d="M471 1677.46C471 1671.39 465.667 1666 459.667 1666 453.667 1666 449 1671.39 449 1677.46 449 1679.48 449.667 1681.5 451 1683.52 451 1683.52 451 1683.52 451 1683.52 459.667 1697 459.667 1697 459.667 1697 469 1683.52 469 1683.52 469 1683.52 469 1683.52 469 1683.52 469 1683.52 470.333 1681.5 471 1679.48 471 1677.46Z" fill="#E84C3D" fill-rule="evenodd"/><path d="M455 1677.5C455 1674.46 457.239 1672 460 1672 462.762 1672 465 1674.46 465 1677.5 465 1680.54 462.762 1683 460 1683 457.239 1683 455 1680.54 455 1677.5Z" fill="#ECF9FD" fill-rule="evenodd"/><path d="M414 1794.43C414 1788.57 409.545 1784 403.818 1784 398.091 1784 393 1788.57 393 1794.43 393 1797.04 393.636 1799 394.909 1800.96 394.909 1800.96 394.909 1800.96 394.909 1800.96 403.818 1814 403.818 1814 403.818 1814 412.091 1800.96 412.091 1800.96 412.091 1800.96 412.091 1800.96 412.091 1800.96 412.091 1800.96 413.364 1799 414 1797.04 414 1794.43Z" fill="#E84C3D" fill-rule="evenodd"/><path d="M398 1794.5C398 1791.46 400.462 1789 403.5 1789 406.538 1789 409 1791.46 409 1794.5 409 1797.54 406.538 1800 403.5 1800 400.462 1800 398 1797.54 398 1794.5Z" fill="#ECF9FD" fill-rule="evenodd"/><path d="M645 1700.31C645 1694.51 640.333 1690 633.667 1690 627.667 1690 623 1694.51 623 1700.31 623 1702.89 623.667 1704.82 625 1706.76 625 1706.76 625 1706.76 625 1706.76 633.667 1719 633.667 1719 633.667 1719 643 1706.76 643 1706.76 643 1706.76 643 1706.76 643 1706.76 643 1706.76 644.333 1704.82 645 1702.89 645 1700.31Z" fill="#E84C3D" fill-rule="evenodd"/><path d="M628 1700.5C628 1697.46 630.463 1695 633.5 1695 636.538 1695 639 1697.46 639 1700.5 639 1703.54 636.538 1706 633.5 1706 630.463 1706 628 1703.54 628 1700.5Z" fill="#ECF9FD" fill-rule="evenodd"/><path d="M560 1584.67C560 1578.67 554.667 1574 548.667 1574 542.667 1574 538 1578.67 538 1584.67 538 1587.33 538.667 1589.33 540 1591.33 539.333 1591.33 539.333 1591.33 539.333 1591.33 548.667 1604 548.667 1604 548.667 1604 558 1591.33 558 1591.33 558 1591.33 558 1591.33 558 1591.33 558 1591.33 558.667 1589.33 560 1587.33 560 1584.67Z" fill="#E84C3D" fill-rule="evenodd"/><path d="M544 1584.5C544 1581.46 546.239 1579 549 1579 551.762 1579 554 1581.46 554 1584.5 554 1587.54 551.762 1590 549 1590 546.239 1590 544 1587.54 544 1584.5Z" fill="#ECF9FD" fill-rule="evenodd"/><path d="M343 1679.09C343 1673.22 338.333 1668 332.333 1668 326.333 1668 321 1673.22 321 1679.09 321 1681.04 321.667 1683 323 1684.96 323 1684.96 323 1684.96 323 1684.96 332.333 1698 332.333 1698 332.333 1698 341 1684.96 341 1684.96 341 1684.96 341 1684.96 341 1684.96 341 1684.96 342.333 1683 343 1681.04 343 1679.09Z" fill="#E84C3D" fill-rule="evenodd"/><path d="M326 1678.5C326 1675.46 328.686 1673 332 1673 335.314 1673 338 1675.46 338 1678.5 338 1681.54 335.314 1684 332 1684 328.686 1684 326 1681.54 326 1678.5Z" fill="#ECF9FD" fill-rule="evenodd"/><path d="M554 1804.46C554 1798.39 549.333 1793 543.333 1793 537.333 1793 532 1798.39 532 1804.46 532 1806.48 532.667 1809.17 534 1810.52 534 1810.52 534 1810.52 534 1810.52 543.333 1824 543.333 1824 543.333 1824 552 1810.52 552 1810.52 552 1810.52 552 1810.52 552 1810.52 552 1810.52 553.333 1809.17 554 1806.48 554 1804.46Z" fill="#E84C3D" fill-rule="evenodd"/><path d="M538 1804.5C538 1801.46 540.462 1799 543.5 1799 546.537 1799 549 1801.46 549 1804.5 549 1807.54 546.537 1810 543.5 1810 540.462 1810 538 1807.54 538 1804.5Z" fill="#ECF9FD" fill-rule="evenodd"/><path d="M398 1594.09C398 1588.22 393.333 1583 387.333 1583 381.333 1583 376 1588.22 376 1594.09 376 1596.04 377.333 1598 378 1599.96 378 1599.96 378 1599.96 378 1599.96 387.333 1613 387.333 1613 387.333 1613 396.667 1599.96 396.667 1599.96 396.667 1599.96 396 1599.96 396 1599.96 396 1599.96 397.333 1598 398 1596.04 398 1594.09Z" fill="#E84C3D" fill-rule="evenodd"/><path d="M382 1593.5C382 1590.46 384.462 1588 387.5 1588 390.537 1588 393 1590.46 393 1593.5 393 1596.54 390.537 1599 387.5 1599 384.462 1599 382 1596.54 382 1593.5Z" fill="#ECF9FD" fill-rule="evenodd"/><path d="M-33 1905.5C-33 1883.13-15.0914 1865 7.00005 1865 29.0915 1865 47.0001 1883.13 47.0001 1905.5 47.0001 1927.87 29.0915 1946 7.00005 1946-15.0914 1946-33 1927.87-33 1905.5Z" fill="#E84C3D" fill-rule="evenodd"/><path d="M916 1905.5C916 1883.13 934.133 1865 956.5 1865 978.867 1865 997 1883.13 997 1905.5 997 1927.87 978.867 1946 956.5 1946 934.133 1946 916 1927.87 916 1905.5Z" fill="#FFEA2E" fill-rule="evenodd"/><path d="M442 2148C442 2125.91 459.909 2108 482 2108 504.092 2108 522 2125.91 522 2148 522 2170.09 504.092 2188 482 2188 459.909 2188 442 2170.09 442 2148Z" fill="#658EDF" fill-rule="evenodd"/><path d="M6.84005 1879 15.4801 1896.24 35.0001 1899.43 20.9201 1912.84 24.1201 1932 6.84005 1923.38-10.44 1932-6.91996 1912.84-21 1899.43-1.79996 1896.24 6.84005 1879Z" fill="#FAFAFA" fill-rule="evenodd"/><path d="M474.857 2170 452 2147.11 462.476 2136.3 474.857 2149.02 501.524 2122 512 2132.49 474.857 2170Z" fill="#FAFAFA" fill-rule="evenodd"/><path d="M970 1916C970 1920 968.683 1923.33 966.049 1926 964.732 1927.33 962.098 1928 960.122 1928 960.122 1932 960.122 1932 960.122 1932 952.878 1932 952.878 1932 952.878 1932 952.878 1928 952.878 1928 952.878 1928 949.585 1927.33 946.951 1926 945.634 1922.67 943.658 1920.67 943 1918 943 1914.67 950.902 1914.67 950.902 1914.67 950.902 1914.67 950.902 1917.33 951.561 1919.33 952.878 1920.67 954.195 1921.33 955.512 1922 956.829 1922 958.146 1922 960.122 1920.67 960.78 1919.33 961.439 1918.67 961.439 1917.33 961.439 1916 961.439 1914 960.78 1912 958.805 1910 956.829 1908.67 954.854 1906.67 951.561 1904 948.927 1902 946.951 1900 945.634 1898 944.317 1896 943.658 1893.33 943.658 1891.33 943.658 1888.67 944.317 1886 945.634 1884 947.61 1881.33 949.585 1880 952.878 1879.33 952.878 1876 952.878 1876 952.878 1876 960.122 1876 960.122 1876 960.122 1876 960.122 1879.33 960.122 1879.33 960.122 1879.33 962.098 1880 964.073 1880.67 965.39 1882 968.024 1884 969.341 1886.67 970 1890 961.439 1891.33 961.439 1891.33 961.439 1891.33 961.439 1889.33 960.78 1888 960.122 1886.67 959.463 1886 958.146 1885.33 956.829 1885.33 954.854 1885.33 954.195 1886 952.878 1887.33 952.219 1888 952.219 1889.33 952.219 1890.67 952.219 1893.33 953.536 1895.33 955.512 1897.33 956.171 1898.67 957.488 1899.33 958.805 1900.67 960.78 1902 962.098 1903.33 962.756 1904 964.732 1905.33 966.707 1907.33 967.366 1909.33 969.341 1911.33 970 1914 970 1916Z" fill="#FAFAFA" fill-rule="evenodd"/></g></svg>