<svg width="1602" height="1468" xmlns="http://www.w3.org/2000/svg" xmlns:xlink="http://www.w3.org/1999/xlink" xml:space="preserve" overflow="hidden"><defs><clipPath id="clip0"><rect x="1576" y="729" width="1602" height="1468"/></clipPath></defs><g clip-path="url(#clip0)" transform="translate(-1576 -729)"><path d="M2092.34 1446.67C2090.22 1444.95 2087.49 1444.23 2084.89 1443.39 2078.6 1441.37 2072.16 1438.06 2069.29 1432.16 2068.68 1430.92 2068.26 1429.6 2067.56 1428.41 2064.83 1423.76 2058.78 1422.26 2053.36 1422.05 2047.94 1421.85 2042.27 1422.46 2037.3 1420.3 2030.31 1417.27 2025.86 1409.22 2018.31 1408.1 2015.01 1407.62 2011.27 1408.87 2009.65 1411.77 2008.04 1414.67 2009.53 1419.06 2012.8 1419.73 2017.28 1422.28 2021.78 1424.82 2026.26 1427.36 2027.2 1427.9 2028.15 1428.43 2029.09 1428.96 2033.33 1431.37 2038.22 1433.85 2042.88 1432.37 2044.3 1431.92 2045.62 1431.12 2047.11 1430.96 2048.1 1430.86 2049.09 1431.07 2050.04 1431.39 2051.56 1431.91 2052.98 1432.75 2054.17 1433.83 2058.45 1437.74 2059.41 1444.35 2063.75 1448.2 2066.39 1450.54 2069.94 1451.56 2073.4 1452.28 2080.33 1453.73 2087.45 1454.27 2094.52 1453.88 2095.75 1451.45 2094.45 1448.39 2092.33 1446.68Z" fill="#8EC640" fill-rule="evenodd"/><path d="M2182.28 1464.19C2168.17 1455.59 2147.37 1464.41 2134.66 1453.85 2131.07 1450.87 2128.61 1446.62 2124.74 1444.03 2118.68 1439.97 2110.7 1440.83 2103.48 1441.85 2105.07 1447.75 2106.02 1455.44 2100.85 1458.71 2099.25 1459.72 2097.34 1460.07 2095.62 1460.85 2093.75 1461.7 2092.13 1463.09 2091 1464.81 2098.05 1464.38 2103.32 1472.58 2110.39 1472.46 2113.3 1472.41 2116.04 1470.91 2118.95 1470.85 2124.82 1470.72 2129.18 1476.19 2134.69 1478.24 2143.65 1481.58 2153.2 1475.4 2162.74 1474.8 2171.8 1474.24 2180.97 1479.3 2185.33 1487.26 2187.77 1491.73 2188.76 1496.91 2191.36 1501.3 2193.97 1505.69 2199.2 1509.29 2204 1507.56 2201.97 1501.49 2199.94 1495.43 2197.91 1489.36 2194.7 1479.79 2190.9 1469.45 2182.28 1464.19Z" fill="#8EC640" fill-rule="evenodd"/><path d="M2365.63 1089.53C2369.82 1091.01 2373.73 1093.27 2377.08 1096.18 2378.54 1097.46 2379.9 1098.84 2381.35 1100.14 2384.99 1103.38 2389.35 1106.04 2394.18 1106.8 2400.11 1107.73 2406.82 1105.4 2409.28 1099.55 2409.89 1098.1 2410.1 1096.48 2409.96 1094.9 2409.42 1089.01 2405.3 1087.35 2401.39 1085.82 2397.14 1084.15 2392.88 1082.48 2388.47 1081.28 2381.47 1079.36 2374.15 1078.65 2366.92 1079.16 2364.14 1079.36 2362.01 1081.69 2362 1084.44 2362 1084.47 2362 1084.5 2362 1084.53 2362 1086.8 2363.48 1088.77 2365.63 1089.53Z" fill="#8EC640" fill-rule="evenodd"/><path d="M2474.37 1137.39C2474.49 1140.08 2473.97 1142.8 2474.29 1145.48 2475.1 1152.12 2481.86 1157.51 2488.68 1156.96 2488.68 1153.29 2488.67 1149.62 2488.66 1145.94 2494.76 1145.63 2500.13 1149.46 2505.33 1152.58 2510.52 1155.7 2517.14 1158.28 2522.53 1155.49 2524.22 1149.82 2521.12 1143.66 2516.62 1139.73 2512.12 1135.78 2506.38 1133.52 2500.95 1130.93 2499.07 1130.03 2497.09 1128.97 2496.17 1127.13 2495.62 1126.02 2495.52 1124.76 2495.28 1123.55 2494.02 1117.25 2488.66 1112.31 2482.64 1109.74 2476.61 1107.17 2469.92 1106.6 2463.36 1106.12 2460.68 1105.93 2457.8 1105.79 2455.5 1107.14 2453.2 1108.5 2452.04 1111.96 2453.98 1113.79 2463.63 1119 2473.88 1126.62 2474.37 1137.39Z" fill="#8EC640" fill-rule="evenodd"/><path d="M2273.01 976.005C2212.64 976.005 2154.67 986.258 2100.7 1005.06L2100.7 1005.06C2100.7 1005.06 2100.69 1005.06 2100.68 1005.07 2096.26 1006.61 2091.87 1008.21 2087.5 1009.86 2087.34 1009.92 2087.18 1009.98 2087.02 1010.04 2082.74 1011.67 2078.48 1013.35 2074.26 1015.09 2074.13 1015.15 2073.98 1015.2 2073.84 1015.26 1883.23 1093.73 1749 1281.41 1749 1500.51 1749 1790.18 1983.61 2025 2273 2025 2453.96 2025 2613.48 1933.19 2707.63 1793.57L2707.63 1793.57C2707.63 1793.57 2707.64 1793.56 2707.65 1793.55 2710.8 1788.89 2713.84 1784.15 2716.84 1779.38 2717.54 1778.26 2718.23 1777.15 2718.93 1776.03 2721.91 1771.2 2724.85 1766.34 2727.68 1761.41 2727.68 1761.41 2727.68 1761.4 2727.68 1761.4 2730.49 1756.49 2733.2 1751.52 2735.86 1746.53 2736.48 1745.36 2737.1 1744.19 2737.71 1743.01 2742.97 1732.95 2747.9 1722.7 2752.5 1712.26 2753.05 1711.02 2753.59 1709.78 2754.13 1708.54 2758.65 1698.08 2762.84 1687.44 2766.69 1676.65 2767.15 1675.35 2767.61 1674.05 2768.06 1672.74 2771.81 1661.92 2775.23 1650.93 2778.29 1639.8 2778.66 1638.45 2779.02 1637.09 2779.38 1635.73 2780.87 1630.15 2782.3 1624.54 2783.6 1618.89 2783.6 1618.86 2783.61 1618.83 2783.62 1618.81 2784.91 1613.19 2786.08 1607.53 2787.2 1601.84 2787.47 1600.44 2787.74 1599.03 2788 1597.62 2789.08 1591.89 2790.09 1586.13 2790.98 1580.33 2790.98 1580.32 2790.98 1580.31 2790.98 1580.29 2791.86 1574.53 2792.61 1568.72 2793.3 1562.89 2793.48 1561.42 2793.65 1559.96 2793.8 1558.5 2794.45 1552.64 2795.03 1546.76 2795.48 1540.84 2795.48 1540.81 2795.48 1540.79 2795.48 1540.77 2795.93 1534.88 2796.24 1528.94 2796.49 1523 2796.56 1521.51 2796.61 1520.02 2796.66 1518.53 2796.86 1512.55 2797 1506.54 2797 1500.51 2797 1494.47 2796.88 1489.04 2796.69 1483.35 2796.64 1481.81 2796.58 1480.27 2796.52 1478.73 2796.33 1473.98 2796.08 1469.25 2795.75 1464.53 2795.68 1463.5 2795.63 1462.47 2795.56 1461.45 2795.14 1455.83 2794.64 1450.23 2794.05 1444.66 2793.91 1443.4 2793.76 1442.15 2793.62 1440.89 2793.1 1436.28 2792.51 1431.69 2791.87 1427.12 2791.7 1425.86 2791.53 1424.61 2791.35 1423.35 2790.52 1417.75 2789.63 1412.17 2788.62 1406.63 2788.53 1406.12 2788.42 1405.62 2788.33 1405.12 2787.4 1400.02 2786.38 1394.96 2785.29 1389.91 2785.04 1388.73 2784.78 1387.55 2784.52 1386.37 2782.06 1375.25 2779.24 1364.27 2776.08 1353.42 2775.82 1352.53 2775.55 1351.65 2775.29 1350.75 2773.79 1345.71 2772.23 1340.69 2770.58 1335.72 2770.45 1335.3 2770.32 1334.88 2770.17 1334.46 2768.32 1328.89 2766.37 1323.37 2764.34 1317.89 2764.22 1317.57 2764.1 1317.26 2763.98 1316.94 2762.06 1311.8 2760.06 1306.7 2757.98 1301.63 2757.76 1301.09 2757.54 1300.54 2757.32 1300 2752.86 1289.24 2748.06 1278.67 2742.93 1268.28 2742.72 1267.85 2742.51 1267.43 2742.3 1267.01 2737.07 1256.51 2731.51 1246.2 2725.62 1236.11 2725.52 1235.94 2725.42 1235.78 2725.32 1235.61 2722.35 1230.54 2719.3 1225.52 2716.17 1220.56L2716.17 1220.56C2713.75 1216.72 2711.28 1212.92 2708.76 1209.14 2704.91 1203.39 2700.94 1197.73 2696.88 1192.13 2696.58 1191.73 2696.29 1191.32 2695.99 1190.91 2691.94 1185.37 2687.79 1179.91 2683.52 1174.54 2683.41 1174.4 2683.3 1174.27 2683.19 1174.13 2674.51 1163.21 2665.4 1152.66 2655.89 1142.48 2655.59 1142.15 2655.28 1141.82 2654.98 1141.49 2650.34 1136.55 2645.61 1131.7 2640.79 1126.94 2640.46 1126.62 2640.12 1126.29 2639.78 1125.96 2629.9 1116.26 2619.64 1106.95 2609.02 1098.06 2608.8 1097.87 2608.59 1097.69 2608.38 1097.51 2603.19 1093.18 2597.9 1088.95 2592.54 1084.82 2592.06 1084.44 2591.57 1084.07 2591.08 1083.69 2585.67 1079.56 2580.2 1075.51 2574.64 1071.58 2574.53 1071.51 2574.42 1071.43 2574.31 1071.35 2562.95 1063.35 2551.25 1055.8 2539.25 1048.7 2538.7 1048.37 2538.14 1048.03 2537.58 1047.71 2531.79 1044.31 2525.93 1041.02 2520.01 1037.84 2519.56 1037.6 2519.1 1037.36 2518.65 1037.12 2506.5 1030.65 2494.06 1024.66 2481.36 1019.14 2480.86 1018.92 2480.36 1018.69 2479.85 1018.47 2473.67 1015.81 2467.42 1013.27 2461.11 1010.84 2460.46 1010.59 2459.81 1010.35 2459.15 1010.1 2452.71 1007.65 2446.21 1005.3 2439.65 1003.09 2439.65 1003.09 2439.65 1003.09 2439.64 1003.09 2439.64 1003.09 2439.64 1003.09 2439.64 1003.09 2387.29 985.53 2331.26 976 2273.01 976ZM2165 1043.02C2164.81 1044.35 2164.49 1045.66 2163.88 1046.87 2162.81 1045.46 2161.44 1044.66 2159.95 1044.19 2161.63 1043.77 2163.32 1043.42 2165 1043.02ZM2126.83 1053.77C2133.32 1051.63 2139.88 1049.65 2146.49 1047.8 2145.18 1048.75 2143.94 1049.77 2142.9 1050.88 2137.34 1056.82 2131.13 1064.55 2123.11 1063.22L2126.83 1053.77ZM2481.72 1079.47C2481.76 1080.87 2481.83 1082.27 2482.08 1083.65 2484.06 1094.28 2495.26 1100.15 2505.16 1104.47 2508.89 1106.09 2515.43 1105.56 2514.43 1101.62 2517.02 1101.68 2519.59 1101.91 2522.16 1102.2 2531.05 1107.79 2539.73 1113.66 2548.2 1119.82 2544.17 1121.98 2541.01 1127.16 2540.71 1132.06 2540.24 1139.62 2543.23 1147.24 2541.78 1154.68 2539.66 1165.64 2528.28 1175.79 2533 1185.9L2522.06 1189.9C2525.23 1194.6 2531.66 1195.72 2537.32 1195.44 2544.52 1195.08 2551.94 1193.14 2558.58 1197.47 2562.1 1199.77 2563.87 1204.22 2562.27 1208.11 2559.68 1214.37 2550.98 1213.86 2544.24 1213.92 2537.52 1213.98 2528.89 1219.79 2532.52 1225.45 2539.22 1230.81 2541.09 1241.3 2536.66 1248.65 2541.47 1246.99 2545.94 1252.24 2547.15 1257.18 2548.72 1263.61 2547.93 1271.12 2555.24 1274.76 2557.62 1275.94 2560.35 1276.29 2562.98 1275.95 2575.52 1274.32 2582.48 1261.38 2594.14 1258.33 2595.48 1244.97 2588.02 1232.47 2585.08 1219.38 2581.4 1202.97 2590.21 1179.5 2612.23 1189.84 2611.37 1202.47 2611.34 1202.96 2610.48 1215.6 2606.51 1217.37 2613.71 1232.31 2619.24 1227.81 2624.34 1224.18 2622.94 1216.25 2620.21 1210.62 2617.47 1204.99 2613.84 1198.7 2616.19 1192.9 2621.92 1192.32 2627.49 1194.42 2632.15 1197.92 2635.29 1201.64 2638.33 1205.44 2641.35 1209.26 2644.2 1215.96 2643.12 1222.37 2645.48 1230.49 2647.15 1230.13 2648.96 1230.48 2650.82 1231.07 2653.06 1231.78 2655.25 1231.31 2656.97 1230.16 2664.06 1240.22 2670.79 1250.54 2677.09 1261.15 2670.46 1263.98 2663.1 1272.81 2656.97 1267.19 2654.7 1265.11 2653.88 1261.98 2654.04 1258.91 2654.43 1251.25 2649.86 1243.02 2642.54 1240.46 2636.34 1238.29 2628.48 1241.12 2626 1247.2 2624.94 1249.81 2624.83 1252.85 2623.12 1255.09 2619.48 1259.91 2611.38 1258.02 2606.64 1261.77 2601.79 1265.61 2602.31 1273.84 2597.37 1277.56 2592.02 1281.58 2583.87 1277.84 2577.91 1280.89 2570.42 1284.73 2571.02 1296.19 2567.49 1303.6 2565.55 1307.65 2565.98 1312.34 2567.81 1316.44 2570.35 1322.14 2570.39 1329.25 2568.61 1335.4 2565.96 1344.62 2560.17 1352.56 2555.99 1361.19 2547.21 1379.28 2545.68 1400.75 2551.78 1419.9 2554.69 1429.05 2559.27 1437.65 2561.44 1447 2564.25 1459.04 2562.94 1471.67 2564.78 1483.9 2566.62 1496.12 2572.96 1509.08 2584.72 1512.87 2588.53 1514.1 2592.83 1514.35 2595.95 1516.86 2601.73 1521.48 2600.72 1531.47 2606.63 1535.92 2610.1 1538.54 2614.87 1538.37 2618.97 1539.79 2624.73 1541.79 2628.84 1546.75 2633.61 1550.54 2638.38 1554.34 2645.24 1557.03 2650.42 1553.83 2656.59 1550.02 2656.97 1539.94 2663.6 1537.03 2669.29 1534.52 2675.94 1538.98 2681.99 1537.54 2689.72 1535.71 2692.01 1526.14 2694.38 1518.54 2696.75 1510.95 2704.43 1502.55 2711.23 1506.67 2718.54 1511.1 2716.02 1525.88 2724.45 1527.21 2730.43 1528.15 2735.52 1520.21 2741.31 1521.99 2741.59 1524.55 2741.66 1527.12 2741.74 1529.69 2741.2 1538.52 2740.39 1547.26 2739.36 1555.95 2738.75 1558.78 2738.09 1561.6 2737.24 1564.37 2736.1 1568.07 2734.74 1571.83 2735.06 1575.68 2735.17 1577.03 2735.52 1578.33 2735.96 1579.6 2698.27 1801.3 2505.09 1970.67 2273.02 1970.67 2249.51 1970.67 2226.41 1968.89 2203.82 1965.53 2208.67 1957.14 2208.15 1945.91 2202.44 1938.07 2210.62 1938.1 2222.04 1934.33 2220.03 1926.4 2227.6 1926.45 2235.17 1926.49 2242.74 1926.54 2244.88 1926.56 2247.16 1926.53 2248.92 1925.33 2253.06 1922.54 2251.41 1916.06 2248.7 1911.87 2245.98 1907.68 2242.47 1902.84 2244.31 1898.2 2246.6 1892.44 2254.84 1892.53 2260.67 1894.62 2266.51 1896.71 2273.13 1899.75 2278.49 1896.64 2282.67 1894.21 2284.16 1889.03 2286.77 1884.97 2294.41 1873.1 2312.53 1869.98 2317.5 1856.77 2319.23 1852.15 2318.98 1847 2320.48 1842.29 2324.67 1829.15 2340.25 1823.97 2353.84 1821.69 2367.43 1819.41 2382.89 1817.12 2390.68 1805.76 2394.13 1800.73 2396.43 1793.75 2402.37 1792.43 2405.13 1791.82 2408.41 1792.59 2410.56 1790.75 2412.9 1788.77 2412.4 1785.08 2411.6 1782.11 2407.69 1767.76 2401.56 1752.02 2408.24 1738.73 2413.69 1727.9 2426.26 1722.23 2432.23 1711.67 2437.76 1701.89 2436.63 1689.85 2435.33 1678.69 2435.05 1676.27 2434.72 1673.73 2433.22 1671.82 2428.91 1666.34 2420.15 1670.45 2413.26 1669.41 2403.2 1667.89 2398.64 1655.6 2389.58 1650.96 2377.23 1644.65 2362.72 1654.64 2348.86 1654.03 2331.56 1653.27 2316.31 1636.01 2299.65 1640.7 2294.59 1625.67 2297.43 1607.19 2286.56 1595.65 2274.97 1583.34 2254.39 1586.07 2239.99 1577.22 2223.66 1567.17 2217.12 1543.39 2198.56 1538.58 2183.07 1534.56 2167.77 1546.27 2151.77 1546.66 2142.14 1546.9 2132.49 1542.76 2126.03 1535.6 2119.85 1528.77 2115.06 1518.57 2105.88 1518 2102.03 1517.76 2098.33 1519.42 2094.83 1521.05 2077.15 1529.26 2059.47 1537.47 2041.8 1545.68 2038.07 1552.18 2045.68 1558.94 2051.04 1564.16 2065.63 1578.41 2066.01 1604.65 2051.83 1619.31 2042.05 1629.42 2025.59 1636.9 2026.39 1650.94 2026.68 1656.05 2029.46 1660.68 2030.43 1665.71 2031.93 1673.45 2029.05 1681.35 2029.08 1689.24 2029.2 1718.08 2065.02 1733.22 2075.55 1760.06 2079.65 1770.53 2081.04 1784.18 2091.37 1788.61 2095.64 1790.45 2100.53 1790.11 2104.96 1791.51 2111.15 1793.46 2115.82 1798.6 2119.27 1804.1 2128.68 1819.13 2130.85 1837.7 2129.61 1855.39 2128.37 1873.09 2123.99 1890.4 2121.27 1907.93 2120.36 1913.79 2119.64 1919.75 2120.46 1925.62 2121.57 1933.48 2125.37 1940.66 2129.11 1947.66 2129.19 1947.81 2129.27 1947.96 2129.35 1948.1 1940.41 1887.2 1803.29 1709.61 1803.29 1500.51 1803.29 1417.35 1825.06 1339.22 1863.06 1271.37 1862.94 1272.94 1862.81 1274.51 1862.64 1276.08 1860.52 1296.2 1854.05 1315.8 1844.38 1333.57 1839.63 1342.3 1833.92 1351.35 1834.58 1361.27 1835.23 1371.19 1846.37 1380.72 1854.87 1375.58 1857.18 1358.26 1859.49 1340.94 1861.8 1323.62 1862.71 1316.78 1867.61 1307.63 1873.72 1310.81 1874.28 1337.86 1874.85 1364.9 1875.41 1391.95 1875.58 1400.33 1875.77 1408.79 1877.67 1416.95 1882.33 1436.93 1897.89 1453.99 1917.34 1460.46 1921.08 1461.71 1925 1462.61 1928.32 1464.72 1935.26 1469.15 1938.18 1477.86 1944.27 1483.42 1955.92 1494.05 1977.17 1491.54 1985.34 1505.05 1988.56 1510.38 1988.77 1516.92 1990.29 1522.96 1994.85 1541 2013.13 1554.53 2031.7 1553.6 2027.75 1537.76 2005.63 1530.37 2004.56 1514.08 2003.93 1504.54 2011.18 1494.92 2007.77 1486 2003.66 1475.25 1988.7 1475.2 1977.36 1477.07 1974.28 1468.35 1981.16 1459.59 1987.19 1452.59 1993.48 1445.31 1999.64 1434.86 1993.75 1426.81 1990 1421.69 1983.06 1420.25 1977.18 1422.61 1966.4 1426.93 1962.24 1437.63 1958.57 1447.65 1945.25 1449.85 1932.75 1438.42 1928.87 1425.47 1924.99 1412.54 1927.51 1398.64 1930.05 1385.37 1931.22 1379.25 1932.47 1372.93 1936.02 1367.8 1938.69 1363.95 1942.48 1361.04 1946.21 1358.19 1959.9 1347.75 1976.62 1336.71 1993.02 1341.92 2000.35 1344.25 2006.31 1349.57 2013.08 1353.2 2022.84 1358.44 2035.87 1361.8 2038.76 1372.49 2040.3 1378.16 2038.25 1384.1 2036.55 1389.73 2034.84 1395.35 2033.55 1401.72 2036.36 1406.87 2039.18 1412.03 2047.88 1413.77 2050.66 1408.6 2060.79 1389.05 2045.41 1362.46 2057.6 1344.12 2064.06 1334.4 2076.14 1330.55 2086.49 1325.16 2096.84 1319.77 2107.16 1309.61 2104.69 1298.2 2104.03 1295.14 2102.49 1291.89 2103.83 1289.08 2104.76 1287.13 2106.82 1286.03 2108.76 1285.1 2120.09 1279.6 2131.88 1275.06 2143.96 1271.54 2142.46 1267.42 2140.96 1263.3 2139.46 1259.17 2142.69 1251.23 2153.5 1249.93 2161.9 1251.68 2170.3 1253.42 2179.08 1256.89 2187.14 1253.92 2199.31 1249.44 2206.23 1231.45 2218.97 1233.91 2218.84 1233.59 2218.71 1233.28 2218.58 1232.96 2216.89 1228.8 2212.78 1225.93 2208.3 1226.25 2203.12 1226.61 2197.62 1224.51 2193.76 1220.9 2188.13 1215.64 2185.44 1207.9 2184.33 1200.28 2199.22 1201.22 2214.11 1202.16 2229.01 1203.1 2225.17 1207.78 2223.78 1214.38 2225.43 1220.21 2236.59 1210.1 2255.21 1227.36 2268.8 1220.89 2265.41 1209.64 2255.61 1200.57 2244.14 1198.05 2249.65 1188.17 2241.74 1176.28 2233.61 1168.43 2225.48 1160.58 2215.8 1151.34 2217.5 1140.16 2208 1140.23 2198.54 1143.3 2190.8 1148.84 2188.14 1139.35 2184.73 1128.89 2176.08 1124.19 2166.68 1119.07 2153.27 1124.31 2149.8 1134.44 2148.42 1138.5 2148.47 1142.96 2146.95 1146.97 2143.85 1155.16 2133.67 1159.86 2125.44 1156.91 2125.83 1166.69 2126.22 1176.47 2126.61 1186.24 2123.25 1192.16 2113.86 1185.69 2113.1 1178.93 2112.34 1172.16 2114.47 1164.28 2109.91 1159.23 2104.98 1153.78 2094.83 1155.12 2090.94 1148.89 2087.49 1143.36 2088.93 1132.73 2082.42 1132.94 2082.43 1117.45 2097.32 1103.63 2112.75 1104.78 2120.38 1105.35 2127.63 1109.01 2135.28 1108.8 2142.93 1108.59 2151.34 1101.48 2148.45 1094.39 2161.21 1089.15 2173.53 1102.06 2181.94 1113 2190.36 1123.94 2205.15 1135.31 2216.34 1127.25 2221.76 1121.8 2206.96 1113.13 2211.25 1106.76 2214.62 1101.76 2224.49 1107.09 2227.8 1102.05 2225.11 1094.16 2217.49 1088.19 2209.2 1087.49 2216.97 1080.29 2210.81 1064.48 2200.23 1064.44 2200.96 1060.82 2201.69 1057.21 2202.43 1053.6 2198.48 1052.01 2195.61 1048.02 2195.37 1043.76 2200.97 1040.65 2206.57 1037.54 2212.17 1034.42 2220.44 1033.34 2228.79 1032.49 2237.19 1031.85 2232.88 1033.08 2228.47 1033.8 2223.89 1033.68 2222.06 1038.72 2227.69 1043.37 2232.87 1044.77 2238.05 1046.16 2244.13 1046.6 2247.38 1050.87 2249.96 1054.27 2249.78 1058.95 2251.11 1063.01 2252.43 1067.06 2257.2 1070.87 2260.66 1068.37 2262.39 1071.9 2262.92 1076.02 2262.12 1079.87 2256.35 1083.38 2253.82 1091.4 2256.54 1097.59 2263.69 1100.58 2268.39 1107.43 2272.28 1114.14 2276.18 1120.85 2279.92 1128.03 2286.23 1132.54 2292.54 1137.04 2302.39 1137.75 2307.35 1131.78 2314.47 1123.2 2306.61 1109.12 2312.09 1099.41 2315.41 1093.52 2322.5 1091.19 2328.55 1088.17 2334.6 1085.15 2340.78 1079.37 2339.32 1072.77 2346.58 1073.37 2354.05 1070.83 2359.44 1065.93 2360.86 1063.08 2359.08 1059.6 2356.65 1057.53 2354.23 1055.47 2351.19 1054.22 2348.86 1052.05 2344.81 1048.27 2343.61 1042.43 2342.14 1037.07 2341.99 1036.52 2341.79 1035.97 2341.63 1035.42 2391.27 1042.73 2438.37 1057.87 2481.72 1079.49Z" fill="#8EC640" fill-rule="evenodd"/><path d="M2295.46 1222.61C2290.69 1221.4 2284.87 1221.79 2281.9 1225.66 2280.69 1227.24 2280.03 1229.3 2278.36 1230.4 2277.32 1231.09 2276.03 1231.28 2274.78 1231.32 2267.97 1231.54 2261.26 1227.59 2254.61 1229.05 2252.97 1229.41 2251.18 1230.4 2251.01 1232.04 2250.92 1233.02 2251.44 1233.96 2252.03 1234.76 2255 1238.83 2259.98 1241.42 2265.08 1241.53 2266.43 1241.56 2267.84 1241.43 2269.1 1241.91 2270.21 1242.33 2271.09 1243.16 2271.93 1243.98 2275.92 1247.86 2280.49 1252.19 2286.1 1251.99 2288.97 1251.9 2292.02 1250.18 2292.6 1247.41 2292.82 1246.34 2292.67 1245.23 2292.85 1244.15 2293.81 1238.59 2302.72 1237.3 2303.89 1231.78 2304.36 1229.55 2303.3 1227.19 2301.62 1225.62 2299.94 1224.05 2297.71 1223.17 2295.46 1222.61Z" fill="#8EC640" fill-rule="evenodd"/><path d="M2236.98 1242.13C2234.78 1240.63 2232.01 1239.46 2229.44 1240.26 2226.15 1241.3 2224.47 1245.2 2221.14 1246.14 2219.31 1246.66 2217.35 1246.16 2215.45 1246.39 2211.62 1246.83 2208.56 1250.64 2209.05 1254.35 2209.14 1255.04 2209.35 1255.74 2209.87 1256.21 2210.26 1256.58 2210.79 1256.77 2211.33 1256.88 2215.18 1257.65 2218.66 1254.61 2222.49 1253.71 2225.95 1252.9 2229.57 1253.89 2233.12 1253.78 2236.68 1253.67 2240.79 1251.71 2240.99 1248.26 2241.14 1245.73 2239.11 1243.59 2236.98 1242.13Z" fill="#8EC640" fill-rule="evenodd"/><path d="M2065.02 1459.62C2063.66 1459.27 2062.28 1458.93 2060.87 1459.01 2058.25 1459.16 2055.81 1460.94 2055 1463.29 2055.08 1464.87 2055.67 1466.41 2056.67 1467.68 2061.16 1468.4 2065.65 1469.11 2070.14 1469.81 2071.32 1469.99 2072.57 1470.16 2073.68 1469.73 2076.4 1468.64 2076.24 1465.01 2075.62 1462.29 2072.09 1461.4 2068.55 1460.51 2065.02 1459.62Z" fill="#8EC640" fill-rule="evenodd"/><path d="M1967.77 1622.37C1964.57 1621.48 1961.49 1619.96 1959.09 1617.62 1957.71 1616.27 1956.45 1614.59 1954.6 1614.13 1953.02 1613.73 1951.39 1614.33 1949.88 1614.94 1948.5 1615.5 1947.1 1616.09 1945.94 1617.02 1942.96 1619.42 1942.1 1624.15 1944.03 1627.48 1945.97 1630.81 1950.45 1632.33 1953.96 1630.83 1955.33 1630.25 1956.63 1629.24 1958.11 1629.32 1959.13 1629.38 1960.03 1629.93 1960.94 1630.38 1962.75 1631.28 1964.73 1631.82 1966.73 1631.96 1968.54 1632.1 1970.45 1631.88 1971.96 1630.85 1973.46 1629.82 1974.42 1627.82 1973.82 1626.07 1973.02 1623.71 1970.15 1623.02 1967.78 1622.36Z" fill="#8EC640" fill-rule="evenodd"/><path d="M2853.05 1697.56C2769.79 1942.03 2536.97 2112.55 2273.02 2112.55 1935.26 2112.55 1660.48 1837.86 1660.48 1500.22 1660.48 1162.57 1923.47 899.881 2251.12 888.31L2251.12 959.062 2395.05 844.031 2251.12 729 2251.12 803.802C1876.88 815.408 1576 1123.33 1576 1500.22 1576 1877.1 1888.68 2197 2273.01 2197 2603.01 2197 2890.25 1962.72 2956 1639.94L2955.17 1639.77C2911.48 1630.88 2867.42 1655.36 2853.05 1697.56Z" fill="#8EC640" fill-rule="evenodd"/><path d="M3134.01 1192C3130.69 1218.09 3110.68 1239.41 3087.93 1252.66 3065.18 1265.91 3039.39 1272.8 3014.85 1282.34 2936.02 1313 2866.55 1377.12 2847.37 1459.4 2837.7 1500.86 2841.04 1544.09 2844.42 1586.53 2860.67 1557.3 2856.89 1519.69 2874.96 1491.55 2892.74 1463.88 2926.64 1452.44 2955.99 1437.57 2987.11 1421.81 3015.3 1400.32 3038.73 1374.5 3039.51 1404.48 3017.88 1430.61 2993.57 1448.23 2969.27 1465.86 2941.17 1478.21 2918.76 1498.18 2890.26 1523.57 2872.75 1560.88 2871.43 1599 2889.44 1582.53 2915.49 1579.17 2939.73 1576.13 2983.94 1570.59 3028.91 1563.25 3068.33 1542.49 3115.4 1517.69 3152.04 1473.83 3168.03 1423.14 3192.05 1346.99 3169.51 1263.54 3134 1192.01Z" fill="#8EC640" fill-rule="evenodd"/><path d="M2824 1341C2838.16 1300.84 2804.14 1254.7 2820.18 1215.26 2826 1200.97 2837.6 1190.03 2848.2 1178.83 2872.23 1153.4 2892.5 1124.41 2908.14 1093.09 2907.41 1108.61 2906.52 1124.31 2902.08 1139.2 2893.55 1167.78 2872.84 1190.89 2859.01 1217.32 2839.64 1254.37 2834.28 1298.58 2844.24 1339.2 2866.53 1313.65 2898.84 1299.32 2924.63 1277.31 2971.48 1237.32 2993.71 1173.02 2990.74 1111.43 2987.76 1049.83 2961.77 991.012 2925.77 941 2922.11 981.605 2896.15 1016.48 2868.88 1046.74 2841.62 1077 2811.36 1106.12 2795.51 1143.68 2782.12 1175.44 2780.18 1211.34 2786.38 1245.25 2792.57 1279.16 2806.59 1311.26 2824 1341Z" fill="#8EC640" fill-rule="evenodd"/><path d="M2705.74 1140.99C2691.58 1077.36 2694.62 1011.34 2697.73 946.236 2714.99 974.32 2713.51 1009.5 2712.64 1042.41 2711.78 1075.33 2713.1 1111.21 2734.18 1136.57 2754.94 1107.43 2776.3 1076.85 2781.65 1041.51 2786.65 1008.43 2776.99 974.963 2765.36 943.585 2757.51 922.397 2748.63 901.388 2735.78 882.782 2712.4 848.916 2677.44 825.062 2643.3 802 2655.05 836.242 2656.15 874.032 2646.41 908.892 2640.33 930.644 2630.18 951.252 2626.06 973.459 2620.15 1005.39 2627.35 1038.91 2642.5 1067.65 2657.65 1096.39 2680.37 1120.64 2705.74 1141Z" fill="#8EC640" fill-rule="evenodd"/></g></svg>