<svg width="1602" height="1404" xmlns="http://www.w3.org/2000/svg" xmlns:xlink="http://www.w3.org/1999/xlink" xml:space="preserve" overflow="hidden"><defs><clipPath id="clip0"><rect x="1576" y="761" width="1602" height="1404"/></clipPath></defs><g clip-path="url(#clip0)" transform="translate(-1576 -761)"><path d="M2499.68 2160C2494.51 2141.12 2374.21 1696.55 2456.98 1606L2467.17 1615.36C2389.5 1700.33 2511.76 2151.79 2513 2156.33L2499.68 2160Z" fill="#582A1A" fill-rule="evenodd"/><path d="M2505.85 2165C2504.67 2165 2503.5 2164.7 2502.45 2164.11 2383.17 2097.05 2274.56 1781.85 2270 1768.47L2283.11 1764C2284.19 1767.16 2390.25 2075.09 2502.48 2147.94L2625.16 1844.97 2638 1850.16 2512.26 2160.67C2511.52 2162.52 2510.01 2163.95 2508.13 2164.61 2507.39 2164.87 2506.62 2165 2505.85 2165Z" fill="#582A1A" fill-rule="evenodd"/><path d="M2706 1444.51C2706 1565.19 2608.19 1663 2487.49 1663 2366.83 1663 2269 1565.19 2269 1444.51 2269 1323.83 2366.83 1226 2487.49 1226 2608.19 1226 2706 1323.83 2706 1444.51Z" fill="#64B044" fill-rule="evenodd"/><path d="M2487.44 1226C2433.96 1226 2385.01 1245.27 2347.03 1277.16 2344.47 1290.58 2343 1304.4 2343 1318.57 2343 1439.2 2440.83 1537 2561.54 1537 2615.03 1537 2663.97 1517.73 2701.97 1485.84 2704.54 1472.42 2706 1458.61 2706 1444.45 2706 1323.8 2608.17 1226 2487.44 1226Z" fill="#8DC375" fill-rule="evenodd"/><path d="M2639 1359.51C2639 1412.8 2596.03 1456 2542.99 1456 2489.99 1456 2447 1412.8 2447 1359.51 2447 1306.21 2489.99 1263 2542.99 1263 2596.03 1263 2639 1306.21 2639 1359.51Z" fill="#8DC375" fill-rule="evenodd"/><path d="M2432 1670.12C2432 1564.01 2518.24 1478 2624.61 1478 2676.35 1478 2723.21 1498.46 2757.83 1531.56 2838.05 1554.14 2901.51 1616.53 2925.41 1696.02 2967.34 1723.81 2995 1771.3 2995 1825.28 2995 1910.98 2925.36 1980.45 2839.43 1980.45 2830.19 1980.45 2821.17 1979.49 2812.37 1977.95 2776.67 1998.31 2735.35 2010 2691.28 2010 2556.28 2010 2446.83 1900.83 2446.83 1766.16 2446.83 1759.4 2447.18 1752.71 2447.72 1746.08 2437.63 1722.77 2432 1697.11 2432 1670.12Z" fill="#64B044" fill-rule="evenodd"/><path d="M2925.46 1696C2901.57 1616.51 2838.14 1554.13 2757.97 1531.56 2723.38 1498.45 2676.54 1478 2624.84 1478 2607.05 1478 2589.91 1480.6 2573.56 1485.1 2573.2 1491.32 2573 1497.56 2573 1503.87 2573 1689.52 2723.81 1840 2909.86 1840 2939.19 1840 2967.66 1836.24 2994.81 1829.21 2994.84 1827.87 2995 1826.58 2995 1825.24 2995 1771.26 2967.36 1723.78 2925.46 1696Z" fill="#8DC375" fill-rule="evenodd"/><path d="M2742.66 1559.63C2779.22 1563.58 2805.67 1596.42 2801.72 1632.98 2797.77 1669.55 2764.93 1695.99 2728.37 1692.04 2691.81 1688.1 2665.36 1655.26 2669.31 1618.69 2673.26 1582.13 2706.1 1555.69 2742.66 1559.63Z" fill="#8DC375" fill-rule="evenodd"/><path d="M2839 1685.01C2839 1705.44 2822.43 1722 2801.99 1722 2781.56 1722 2765 1705.44 2765 1685.01 2765 1664.57 2781.56 1648 2801.99 1648 2822.43 1648 2839 1664.57 2839 1685.01Z" fill="#8DC375" fill-rule="evenodd"/><path d="M2447 1657.84C2447 1565.69 2372.25 1491 2280.04 1491 2235.2 1491 2194.59 1508.76 2164.59 1537.51 2095.05 1557.13 2040.03 1611.3 2019.3 1680.34 1982.98 1704.47 1959 1745.71 1959 1792.59 1959 1867.01 2019.37 1927.34 2093.85 1927.34 2101.86 1927.34 2109.68 1926.5 2117.31 1925.16 2148.25 1942.84 2184.07 1953 2222.26 1953 2339.29 1953 2434.16 1858.21 2434.16 1741.26 2434.16 1735.38 2433.86 1729.57 2433.39 1723.82 2442.11 1703.57 2447 1681.27 2447 1657.84Z" fill="#64B044" fill-rule="evenodd"/><path d="M2279.88 1491C2235 1491 2194.34 1508.74 2164.31 1537.46 2129.84 1547.16 2098.94 1565.36 2074 1589.6 2098.42 1694.66 2192.81 1773 2305.6 1773 2352.87 1773 2396.87 1759.19 2433.9 1735.49 2433.77 1731.49 2433.69 1727.48 2433.37 1723.54 2442.11 1703.31 2447 1681.04 2447 1657.64 2447 1565.6 2372.18 1491 2279.88 1491Z" fill="#8DC375" fill-rule="evenodd"/><path d="M2340.98 1516.39C2329.51 1516.39 2318.81 1519.62 2309.63 1525.12 2295.71 1515.58 2278.86 1510 2260.7 1510 2212.81 1510 2174 1548.72 2174 1596.49 2174 1644.28 2212.81 1683 2260.7 1683 2293.54 1683 2322.09 1664.79 2336.81 1637.94 2338.19 1638.04 2339.57 1638.16 2340.98 1638.16 2374.67 1638.16 2402 1610.9 2402 1577.28 2402 1543.66 2374.67 1516.39 2340.98 1516.39Z" fill="#8DC375" fill-rule="evenodd"/><path d="M2000 1989 2111 1989 2111 2165 2000 2165Z" fill="#582A1A" fill-rule="evenodd"/><path d="M2130.5 1244.34C2261.36 1274.55 2362 1173.86 2362 1173.86L2060.03 761 2049.96 761 1748 1173.87C1748 1173.87 1848.64 1274.55 1979.5 1244.35L2130.5 1244.35Z" fill="#109D59" fill-rule="evenodd"/><path d="M2145.38 1601.28C2301.17 1637.17 2421 1517.54 2421 1517.54L2061.48 1027 2049.51 1027 1690 1517.54C1690 1517.54 1809.83 1637.18 1965.62 1601.28L2145.38 1601.28Z" fill="#109D59" fill-rule="evenodd"/><path d="M2162.12 2059.91C2366.5 2107.08 2535 1932.69 2535 1932.69L2063.34 1288 2047.63 1288 1576 1932.69C1576 1932.69 1731.09 2102.04 1935.46 2054.87L2162.12 2059.91Z" fill="#109D59" fill-rule="evenodd"/><path d="M2060.12 761 2050.05 761 2008.83 817.358C1970.71 968.599 1971.19 1128.51 2081.92 1163.75 2167.44 1190.96 2275.09 1158.7 2329 1128.54L2060.12 761Z" fill="#34B67A" fill-rule="evenodd"/><path d="M2622 1553 2669 1553 2669 2165 2622 2165Z" fill="#582A1A" fill-rule="evenodd"/><path d="M3110.59 1437.27C3129.24 1424.46 3141.49 1403.03 3141.49 1378.71 3141.49 1339.45 3109.7 1307.65 3070.48 1307.65 3067.36 1307.65 3064.39 1308.18 3061.35 1308.57 3031.03 1266.05 2987.9 1233.3 2937.57 1216.03 2941.2 1199.04 2943.18 1181.45 2943.18 1163.39 2943.18 1024 2830.24 911 2690.97 911 2551.66 911 2438.74 1024 2438.74 1163.39 2438.74 1173.45 2439.48 1183.34 2440.63 1193.09 2436.76 1192.91 2432.94 1192.5 2429.06 1192.5 2389.37 1192.5 2351.96 1201.93 2318.56 1218.28 2311.31 1205.06 2297.45 1196 2281.34 1196 2257.82 1196 2238.75 1215.09 2238.75 1238.63 2238.75 1249.68 2243.06 1259.67 2249.96 1267.24 2233.43 1283.91 2219.24 1302.87 2207.85 1323.62 2200.92 1321.36 2193.66 1319.83 2186.01 1319.83 2146.79 1319.83 2115 1351.63 2115 1390.89 2115 1423.62 2137.24 1450.89 2167.32 1459.14 2158.9 1466.92 2153.54 1477.98 2153.54 1490.36 2153.54 1512.76 2170.89 1530.92 2192.82 1532.65 2228.48 1628.71 2320.63 1697.29 2429.06 1697.29 2517.01 1697.29 2594.35 1652.16 2639.49 1583.81 2683.55 1657.51 2763.84 1707 2855.87 1707 2923.54 1707 2984.86 1680.17 3030.16 1636.75 3042.62 1641.8 3056.22 1644.64 3070.48 1644.64 3129.85 1644.64 3178 1596.47 3178 1537.05 3178 1491.82 3150.1 1453.19 3110.59 1437.27Z" fill="#64B044" fill-rule="evenodd"/><path d="M2933.36 1019.62C2932.44 984.893 2904.12 957 2869.22 957 2833.74 957 2805 985.818 2805 1021.35 2805 1042.28 2815.02 1060.82 2830.47 1072.58 2823.15 1086.55 2818.97 1102.41 2818.97 1119.28 2818.97 1174.9 2863.96 1220 2919.48 1220 2974.99 1220 3020 1174.9 3020 1119.28 3020 1068.39 2982.28 1026.4 2933.36 1019.62Z" fill="#64B044" fill-rule="evenodd"/><path d="M2367 1200.48C2407.01 1407.02 2588.57 1563 2806.59 1563 2926.24 1563 3034.87 1515.93 3115.21 1439.41 3113.49 1438.62 3111.9 1437.63 3110.13 1436.92 3128.76 1424.12 3141 1402.7 3141 1378.39 3141 1339.16 3109.24 1307.38 3070.06 1307.38 3066.95 1307.38 3063.98 1307.91 3060.94 1308.3 3030.65 1265.81 2987.56 1233.09 2937.28 1215.82 2940.9 1198.85 2942.88 1181.27 2942.88 1163.22 2942.88 1023.92 2830.05 911 2690.92 911 2551.75 911 2438.93 1023.93 2438.93 1163.22 2438.93 1173.28 2439.67 1183.16 2440.82 1192.9 2436.95 1192.73 2433.14 1192.31 2429.26 1192.31 2407.7 1192.31 2386.92 1195.32 2367 1200.48Z" fill="#8DC375" fill-rule="evenodd" fill-opacity="0.301961"/><path d="M2837 1079.5C2837 1148.26 2781.28 1204 2712.5 1204 2643.74 1204 2588 1148.26 2588 1079.5 2588 1010.74 2643.74 955 2712.5 955 2781.28 955 2837 1010.74 2837 1079.5Z" fill="#8DC375" fill-rule="evenodd"/><path d="M3006 1310.5C3006 1343.36 2979.36 1370 2946.51 1370 2913.63 1370 2887 1343.36 2887 1310.5 2887 1277.64 2913.63 1251 2946.51 1251 2979.36 1251 3006 1277.63 3006 1310.5Z" fill="#8DC375" fill-rule="evenodd"/><path d="M2622 1310.5C2622 1359.93 2582.16 1400 2533.01 1400 2483.85 1400 2444 1359.93 2444 1310.5 2444 1261.07 2483.84 1221 2533.01 1221 2582.16 1221 2622 1261.06 2622 1310.5Z" fill="#8DC375" fill-rule="evenodd"/><path d="M2882 1144C2882 1192.6 2842.59 1232 2794 1232 2745.38 1232 2706 1192.6 2706 1144 2706 1095.4 2745.38 1056 2794 1056 2842.59 1056 2882 1095.4 2882 1144Z" fill="#8DC375" fill-rule="evenodd"/><path d="M2420.98 1425.94C2421.17 1371.48 2382.51 1323.02 2327.12 1312.88 2264.9 1301.52 2205.26 1342.8 2193.88 1405.08 2184.68 1455.56 2210.02 1504.32 2253.03 1527.06 2252.85 1581.53 2291.49 1629.98 2346.89 1640.12 2409.11 1651.49 2468.75 1610.21 2480.12 1547.91 2489.32 1497.44 2464.01 1448.7 2420.98 1425.94Z" fill="#64A74A" fill-rule="evenodd"/></g></svg>